/* XPM */
static char *result[] = {
/* columns rows colors chars-per-pixel */
"64 64 247 2 ",
"   c #000001",
".  c #0A0501",
"X  c #00000C",
"o  c #090909",
"O  c #080905",
"+  c #140902",
"@  c #151407",
"#  c #010114",
"$  c #01001C",
"%  c #0B0318",
"&  c #160612",
"*  c #290717",
"=  c #2A0D09",
"-  c #372318",
";  c #000021",
":  c #0E0423",
">  c #1A0924",
",  c #1E1525",
"<  c #331928",
"1  c #3C272A",
"2  c #313335",
"3  c #570301",
"4  c #4E0F14",
"5  c #6F2D15",
"6  c #45282B",
"7  c #483733",
"8  c #543933",
"9  c #4C2B2C",
"0  c #6C3729",
"q  c #412522",
"w  c #5A4639",
"e  c #4D4339",
"r  c #7D4528",
"t  c #674737",
"y  c #754B37",
"u  c #7A5736",
"i  c #6A522E",
"p  c #7C6837",
"a  c #3E4D56",
"s  c #444743",
"d  c #5A4C42",
"f  c #5B5448",
"g  c #5C5957",
"h  c #4B5258",
"j  c #705745",
"k  c #756654",
"l  c #863405",
"z  c #DB3A00",
"x  c #D92900",
"c  c #E23D00",
"v  c #A15919",
"b  c #9F5525",
"n  c #86563A",
"m  c #935636",
"M  c #A2572A",
"N  c #916A3A",
"B  c #BC763A",
"V  c #AF6731",
"C  c #80581C",
"Z  c #DD4802",
"A  c #DC5B04",
"S  c #DA5E12",
"D  c #E55700",
"F  c #E24A05",
"G  c #E46A01",
"H  c #EB6C01",
"J  c #E96405",
"K  c #EC7401",
"L  c #ED7B00",
"P  c #E57803",
"I  c #E97513",
"U  c #DD6839",
"Y  c #E77A25",
"T  c #E4743B",
"R  c #875C42",
"E  c #8B6747",
"W  c #966847",
"Q  c #9A7649",
"!  c #8F7657",
"~  c #A26844",
"^  c #A57548",
"/  c #A37B56",
"(  c #BB7E51",
")  c #BB784A",
"_  c #9C7963",
"`  c #DD7642",
"'  c #E77A45",
"]  c #7C836E",
"[  c #ED8504",
"{  c #F18401",
"}  c #F28B02",
"|  c #F3860C",
" . c #F49302",
".. c #F99C01",
"X. c #F89907",
"o. c #F59915",
"O. c #F28C1B",
"+. c #FDAC01",
"@. c #FAA606",
"#. c #FEB302",
"$. c #FEBB02",
"%. c #FFBB0C",
"&. c #FEB30E",
"*. c #FBA915",
"=. c #FDB713",
"-. c #ED882A",
";. c #F59C26",
":. c #EA8538",
">. c #EF9336",
",. c #FFB839",
"<. c #F7A929",
"1. c #FEC302",
"2. c #FFC806",
"3. c #FED802",
"4. c #FFCC14",
"5. c #FFC816",
"6. c #FFD619",
"7. c #FFDA25",
"8. c #FFD232",
"9. c #FFE82A",
"0. c #FFE835",
"q. c #FFF238",
"w. c #FFE61F",
"e. c #9C824D",
"r. c #A78858",
"t. c #BB8656",
"y. c #AC8B4B",
"u. c #9D9C7A",
"i. c #938D70",
"p. c #A98B62",
"a. c #BB8C66",
"s. c #AB9567",
"d. c #B59868",
"f. c #AA9B76",
"g. c #B89570",
"h. c #B6A272",
"j. c #C68955",
"k. c #C99658",
"l. c #D59359",
"z. c #D28A4C",
"x. c #E98946",
"c. c #EC9444",
"v. c #ED9957",
"b. c #F29B49",
"n. c #CAA55A",
"m. c #CFA14E",
"M. c #F5A746",
"N. c #FEB749",
"B. c #ECAA5B",
"V. c #F3A655",
"C. c #F9B759",
"Z. c #D79963",
"A. c #CA9769",
"S. c #E79E68",
"D. c #CAA466",
"F. c #D5A86B",
"G. c #DAAB75",
"H. c #DAB978",
"J. c #CDAA72",
"K. c #E7A868",
"L. c #F4AE65",
"P. c #F9BB6A",
"I. c #EAB578",
"U. c #F3B776",
"Y. c #EAB073",
"T. c #FFD254",
"R. c #FCC66C",
"E. c #EAC375",
"W. c #F8C779",
"Q. c #FED479",
"!. c #A49E8D",
"~. c #ABA386",
"^. c #A9A898",
"/. c #B5B38D",
"(. c #A6ACA5",
"). c #B2B0A2",
"_. c #D8B687",
"`. c #CCBA91",
"'. c #E9BB85",
"]. c #F3B785",
"[. c #E9A892",
"{. c #F2B796",
"}. c #EBAC8A",
"|. c #CEB9A3",
" X c #D8C998",
".X c #D8CD97",
"XX c #E5C687",
"oX c #F4C483",
"OX c #F8C988",
"+X c #FDD48C",
"@X c #FBD587",
"#X c #E9C993",
"$X c #F7C797",
"%X c #FCD392",
"&X c #FDDC93",
"*X c #FDD39C",
"=X c #FEDC9C",
"-X c #F5D79A",
";X c #EAD398",
":X c #FEE49C",
">X c #FDE398",
",X c #FFE48F",
"<X c #D7D5B9",
"1X c #D6D1A8",
"2X c #F5CBA5",
"3X c #EBD7A4",
"4X c #F8D9A4",
"5X c #F9DAB7",
"6X c #E9C7A4",
"7X c #FFEBA4",
"8X c #FDE3AC",
"9X c #FDECAA",
"0X c #F9E3A9",
"qX c #FFF2AB",
"wX c #E9E7B5",
"eX c #FEE4B3",
"rX c #FDEBB3",
"tX c #FCECBA",
"yX c #F7E8B8",
"uX c #FFF3B2",
"iX c #FEF3BD",
"pX c #FFFBBD",
"aX c #F8F3B7",
"sX c #D8DCCB",
"dX c #D6DFD2",
"fX c #F6DAC4",
"gX c #D7E1D7",
"hX c #FEEBC2",
"jX c #FDECCC",
"kX c #F8E6C8",
"lX c #FFF5C2",
"zX c #FEFBC3",
"xX c #FEF3CC",
"cX c #FFFDCB",
"vX c #F6F5C7",
"bX c #FBEDD3",
"nX c #FEF4D4",
"mX c #FFFDD4",
"MX c #FDF5DC",
"NX c #FFFDDC",
"BX c #F4F4DD",
"VX c #E7E0CD",
"CX c #FEFCE4",
"ZX c #FFFFEB",
"AX c #F8F8E6",
"SX c #FFFFF2",
"DX c None",
/* pixels */
"DXDXDXDXDXDXDXDXDXDXDXDXDXDXDXDXDXDXDXDXDXDXDXDXDXDXDXDXDXDXDXDXDXDXDXDXDXDXDXDXDXDXDXDXDXDXDXDXDXDXDXDXDXDXDXDXDXDXDXDXDXDXDXDX",
"DXDXDXDXDXDXDXDXDXDXDXDXDXDXDXDXDXDXDXDXDXDXDXDXDXDXDXDXDXDXDXDXDXDXDXDXDXDXDXDXDXDXDXDXDXDXDXDXDXDXDXDXDXDXDXDXDXDXDXDXDXDXDXDX",
"DXDXDXDXDXDXDXDXDXDXDXDXDXDXDXDXDXDXDXDXDXDXDXDXDXDXDXDXDXDXDXDXDXDXDXDXDXDXDXDXDXDXDXDXDXDXDXDXDXDXDXDXDXDXDXDXDXDXDXDXDXDXDXDX",
"DXDXDXDXDXDXDXDXDXDXDXDXDXDXDXDXDXDXDXDXDXDXDXDXDXDXDXDXDXDXDXDXDXDXDXDXDXDXDXDXDXDXDXDXDXDXDXDXDXDXDXDXDXDXDXDXDXDXDXDXDXDXDXDX",
"DXDXDXDXDXDXDXDXDXDXDXDXDXDXDXDXDXDXDXDXDXDXDXDXDXDXDXDXDXDXDXDXDXDXDXDXDXDXDXDXDXDXDXDXDXDXDXDXDXDXDXDXDXDXDXDXDXDXDXDXDXDXDXDX",
"DXDXDXDXDXDXDXDXDXDXDXDXDXDXDXDXDXDXDXDXDXDXDXDXDXDXDXDXDXDXDXDXDXDXDXDXDXDXDXDXDXDXDXDXDXDXDXDXDXDXDXDXDXDXDXDXDXDXDXDXDXDXDXDX",
"DXDXDXDXDXDXDXDXDXDXDXDXDXDXDXDXDXDXDXDXDXDXDXDXDXDXDXDXDXDXDXDXDXDXDXDXDXDXDXDXDXDXDXDXDXDXDXDXDXDXDXDXDXDXDXDXDXDXDXDXDXDXDXDX",
"DXDXDXDXDXDXDXDXDXDXDXDXDXDXDXDXDXDXDXDXDXDXDXDXDXDXDXDXDXDXDXDXDXDXDXDXDXDXDXDXDXDXDXDXDXDXDXDXDXDXDXDXDXDXDXDXDXDXDXDXDXDXDXDX",
"DXDXDXDXDXDXDXDXDXDXDXDXDXDXDXDXDXDXDXDXDXDXDXDXDXDXDXDXDXDXDXDXDXDXDXDXDXDXDXDXDXDXDXDXDXDXDXDXDXDXDXDXDXDXDXDXDXDXDXDXDXDXDXDX",
"DXDXDXDXDXDXDXDXDXDXDXDXDXDXDXDXDXDXDXDXDXDXDXDXDXDXDXDXDXDXDXDXDXDXDXDXDXDXDXDXDXDXDXDXDXDXDXDXDXDXDXDXDXDXDXDXDXDXDXDXDXDXDXDX",
"DXDXDXDXDXDXDXDXDXDXDXDXDXDXDXDXDXDXDXDXDXDXDXDXDXDXDXDXDXDXDXDXDXDXDXDXDXDXDXDXDXDXDXDXDXDXDXDXDXDXDXDXDXDXDXDXDXDXDXDXDXDXDXDX",
"DXDXDXDXDXDXDXDXDXDXDXDXDXDXDXDXDXDXDXDXDXDXDXDXDXDXDXDXDXDXDXDXDXDXDXDXDXDXDXDXDXDXDXDXDXDXDXDXDXDXDXDXDXDXDXDXDXDXDXDXDXDXDXDX",
"DXDXDXDXDXDXDXDXDXDXDXDXDX% X o O O O o o o o % o o o o O O O . O # # DXDXDXDXDXDXDXDXDXDXDXDXDXDXDXDXDXDXDXDXDXDXDXDXDXDXDXDXDX",
"DXDXDXDXDXDXDXDXDXDXDXDX; $ $ $ # o         O o         O O X # # $ $ % DXDXDXDXDXDXDXDXDXDXDXDXDXDXDXDXDXDXDXDXDXDXDXDXDXDXDXDX",
"DXDXDXDXDXDXDXDXDXDXDXDX6 9 8 8 w w f f g g g g g g g g f w w w 8 8 9 9 DXDXDXDXDXDXDXDXDXDXDXDXDXDXDXDXDXDXDXDXDXDXDXDXDXDXDXDX",
"DXDXDXDXDXDXDXDXDXDXDX9 0 y W / r.r.h.~.^.^.(.(.(.(.^.~.f.s.y.y.^ N 0 5 3 DXDXDXDXDXDXDXDXDXDXDXDXDXDXDXDXDXDXDXDXDXDXDXDXDXDXDX",
"DXDXDXDXDXDXDXDXDX. X 9 m M t.A.F.H. X1X<XsXdXdXgXgXsX<X.XH.n.m.z.B v l 3   .                   X X # DXDXDXDXDXDXDXDXDXDXDXDXDX",
"DXDXDXDXDXDXDXDXX X * 0 R ` l.Y.E.@X:XtXvXBXAXAXAXAXAXkXyX-XW.Y.B.z.B b 5 =                 X # $ $ ; $ DXDXDXDXDXDXDXDXDXDXDXDX",
"DXDXDXDXDXDXDXDX, 1 j ^ j.Z.K.U.W.@X:XrXxXNXZXSXZXZXMXmXpX9X>X+XoXI.A.A./ k a a h g g f f f w w 8 8 6 6 DXDXDXDXDXDXDXDXDXDXDXDX",
"DXDXDXDXDXDXDXt j W t.D.G.}.E.W.R.W.@X:XeXhXxXnXxXhXxXjXlXiXiXrX5X6X6X|.|.).(.(.(.(.^.^.~.s.p.e.Q N r 5 4 DXDXDXDXDXDXDXDXDXDXDX",
"DXDXDXDXDX  = y Q t.F.I.oX@X@XOXP.C.P.U.OX*X*X*X$X%X*XeXhXmXNXMXMXkXVXVXVXsXdXdXgXgXsX<X1X XH.D.k.B v l 3   @ DXDXDXDXDXDXDXDXDX",
"DXDXDXDX    1 E j.G.].OX&X&X+XoXL.b.-.>.M.N.N.N.,.N.P.*XhXCXZXZXZXCXCXCXAXAXAXAXAXAXAXvXyX=XW.E.K.z.B M 0 *   . DXDXDXDXDXDXDXDX",
"DXDXDXDX= 1 k g._.OX*X&X=X&X+XR.V.-.L } ..+.+.+.+.+.,.@XeXMXZXZXZXCXCXZXCXCXCXCXCXZXMXxXuX:X@X@XW.'.A.A./ j 7 2 DXDXDXDXDXDXDXDX",
"DXDXDXt y E a._.6X5XeX8X=XOXR.C.b.X.} X.X.&.=.%.%.$.8.Q.4XtXjXMXnXmXNXnXjXjXjXjXjXxXhXrX>X@XQ.+X*X2X6X|._.d.e.p i DXDXDXDXDXDXDX",
"X $ 8 n ^ t.G.#X5XjXjXeX$XU.b.;.o.*.@.+.#.$.1.2.3.3.9.T.R.+X4X4XtXiXtXeX4X2X{.$X$X4X%XOXR.T.R.%X5XkXVXkX3XE.n.y.p - . DXDXDXDXDX",
"  # 7 Q t.K.$X5XnXAXMXfX{.v.I } ..@.#.#.$.$.4.6.w.9.q.0.8.T.C.Q.&X:X7XOXU.v.c.b.M.N.N.,.*.*.C.%XhXAXCXnXaX>XE.n.e.1   @ DXDXDXDX",
"  X w r.F.oX4XhXMXSXCXfX{.' D H  .+.=.%.$.2.5.7.0.q.q.6.1.+.@.N.R.@XQ.R.M.| L { ..@.+.#.+.+.N.@XhXMXCXNXcXqX&XXXh.E 1 + DXDXDXDX",
"  X d s._.-XrXcXCXSXZXfX[.U F D { ..*.=.%.%.4.7.9.9.9.3.$.X. .X.N.P.P.C.;.} | X.*.+.$.1.%.1.T.Q.8XhXxXcXvXlXrX4XXXh.e.p i DXDXDX",
"    f f..XrXcXNXZXZXAXfX[.U x z K  .@.*.&.&.5.5.7.7.6.1.#.} [ { >.V.V.M.;.@.@.+.#.$.1.2.3.3.q.T.Q.@X4XrXjXmXxXtX4XE.n.y.Q e X   ",
"  X f u.1XaXcXNXZXZXBXfX[.U x z J [ O.*.*.&.%.5.4.6.4.$.@.[ L P Y Y -.;.o.*.#.#.$.1.4.6.9.q.q.9.4.,.R.*XhXMXCXxXyX+XE.n.e.w X   ",
"    f u..XaXcXNXCXCXMX5X[.' S A G P [ } X.@.@.#.$.1.$.=.<.;.-.Y H J H L ..@.&.=.%.2.4.7.0.q.9.3.$.+.<.$XhXCXZXNXzX9X&XH.r.d X   ",
"    d i./.3XaXcXNXCXNXkX6XS.:.P G G G P [  ...@.@.+.@.<.M.B.m.x.I D D H { @.*.=.%.%.5.7.9.0.w.2.+...o.].fXCXSXZXNXxXeX#Xf.f     ",
"  X 8 _ J._.4XyXcXmXmXlX:XW.B.>.Y A Z D H L { { } } X.<.C.R.P.B.T F Z A P  .*.*.&.&.%.6.7.7.3.1.X.[ O.}.fXCXZXZXZXMXkX1X!.g X   ",
"# ; 8 W ) Z.'.-XyXzXcXpX9X,XW.B.:.S z Z D H L L K P } M.R.@X@XU.v.S z Z G [ O.o.*.&.=.5.5.7.2.#. .[ -.'.5XMXSXSXSXZXBX<X!.h     ",
"$ ; 6 0 b B A.'.3XiXzXpXuXqX=XoXK.` S D I Y :.T :.x.v.U.+X>X>XOXK.` S A G P { } X.@.&.#.$.$.%.=.o.-.S.{.fXMXZXSXSXZXBX<X!.g     ",
"; ; 1 5 l b t.G.#X0XuXiXzXzXtX4X'.K.x.x.b.b.v.Y.}.}.$X4X0XaXqX&X].K.x.Y I G G P {  ...X.@.@.*.M.L.}.2X5XbXCXZXZXZXNXkX<X!.f     ",
"DXDX< 4 3 0 ^ A._.%X0XiXxXNXnXtX4XoXL.B.C.P.U.$X2XfXkXjXzXcXuXqX-XW.B.c.Y A z Z J K L | [ { ;.L.$X2XfXMXAXZXCXCXNXzX0X.Xf.f X   ",
"DXDXDX>   * y r.F.XX2XtXbXCXCXxXeX%XQ.Q.Q.Q.&XeXjXCXCXMXNXcXzXuX7X,XW.L.x.A x z D H K H J K x.].5XbXCXSXSXZXCXnXlX9X@XH.p.w X   ",
"DXDXDXDX+ X 6 W k.K.OX5XbXCXCXnXiX7X>X,X,X>X7XiXmXCXCXCXmXvXiXuXqX7X&XoXK.x.U U ' ' x.' Y -.K.$XkXCXSXSXSXZXMXxX9X%XE.n.Q w X   ",
"DXDXDXDX+ # 1 N j.K.].2X5XbXnXnXlXqXqXqXqX9XuXlXcXmXNXxXtXyX0X8XuXuXqX=X#X}._.}.[.{.{.].Y.U.].5XbXCXSXSXSXCXmXkX3XH.m.y.N 8 $ # ",
"DXDXDX$ O # 9 W j.Z.Y.{.2X5XeXtXiXpXpXpXpXpXpXpXpXpXaX8X4X#X#X4XqXpXzXpXrX0X4X5X5XfXfX5X4X4X0XhXMXZXSXZXZXNXvXwX Xh.N C i 7 DXDX",
"DXDXDX; % $ 9 E r.A.K.I.].OX*X8XrXzXcXcXcXcXzXuXuX7X&XOXY.F.G.#X9XzXcXzXzXpXvXmXMXAXAXmXvXlXlXcXMXCXZXZXCXmXvX1X/.k q = - DXDXDX",
"DXDXDXDX$ $ 9 j ^ ` Z.Z.K.Y.].*XrXiXcXcXcXcXzX9X>X@XE.B.l.z.j._.;XwXvXzXpXpXcXmXCXCXCXCXmXcXcXmXNXCXCXNXmXcXaX.Xu.s   O DXDXDXDX",
"DXDXDXDX$ ; 6 y n W ( A.l.B.U.%X0XuXpXzXzXaXrX0X;XH.n.j.B V ) g./.1X<XwXwXyXaXxXcXmXNXmXmXcXmXmXNXNXmXmXcXpX0X.Xf.7   @ DXDXDXDX",
"DXDXDXDXDXDX1 9 8 u ~ ` l.Z.Y.OX=X7XqXqX9X8X=X#XG.d.Q N m n R ! i.u.~.`.`.#X;X4XrXtXpXzXcXcXcXmXmXmXmXcXpXaX:XXXf.e   +   DXDXDX",
"DXDXDXDXDXDXDX> : < t W ( Z.K.W.+X&X:X>X=X*X#XG.p.k 1 , < 6 7 7 s s k / a.Z.Y.oX+X>XqXaXpXzXcXmXmXcXzXpXqX7X&XH.d.w X O X DXDXDX",
"DXDXDXDXDXDXDXDXX # < y ~ ( l.Y.I.@X@XoXoX].G.a.E 1     X $ $       + 5 M ` A.B.I.W.,X>XaXaXzXzXcXcXpXuX7X&XE.D.e.w # O DXDXDXDX",
"DXDXDXDXDXDXDXDXDX# > 0 n ~ t.k.D.J.H.G.G.F.j./ y *   .   # X       . 3 l m ) t.m.F.H.XX;X3XrXiXpXcXzXaX-XXXk.y.E 7 # O DXDXDXDX",
"DXDXDXDXDXDXDXDXDXDX> 8 0 j W ~ r.r.r.r.p.r.! R 8 , . DX$ ; $ X DX. + 4 0 r N W Q e.p.J.G.'.;X8XzXcXcXaX.Xh.e.u i 1 DXDXDXDXDXDX",
"DXDXDXDXDXDXDXDXDXDXDX1 6 7 8 8 w w w w d t 8 7 7 DXDXDXDXDXDXDXDXDXDX< q 6 8 7 7 e j Q t.Z.'.4XpXcXzXwX/.k -   & DXDXDXDXDXDXDX",
"DXDXDXDXDXDXDXDXDXDXDXDX$ $ ; $ # X X X X # X # DXDXDXDXDXDXDXDXDXDXDXDX; ; $ #     * 5 b B Z.{.wXaXwX1X!.s O @ DXDXDXDXDXDXDXDX",
"DXDXDXDXDXDXDXDXDXDXDXDX% $ % % . . . . . . . . DXDXDXDXDXDXDXDXDXDXDXDX; $ % .   +   3 l b ( J..X1X1X/.] 2 O o DXDXDXDXDXDXDXDX",
"DXDXDXDXDXDXDXDXDXDXDXDXDXDX; $ # # X X X # DXDXDXDXDXDXDXDXDXDXDXDXDXDXDXDX; % X X # 4 5 0 W p.f.~.!.] k 2 DXDXDXDXDXDXDXDXDXDX",
"DXDXDXDXDXDXDXDXDXDXDXDXDXDXDXDXDXDXDXDXDXDXDXDXDXDXDXDXDXDXDXDXDXDXDXDXDXDXDXDXDXDXDX< 6 9 8 d f g f f s DXDXDXDXDXDXDXDXDXDXDX",
"DXDXDXDXDXDXDXDXDXDXDXDXDXDXDXDXDXDXDXDXDXDXDXDXDXDXDXDXDXDXDXDXDXDXDXDXDXDXDXDXDXDXDXDX; ; $ X O       DXDXDXDXDXDXDXDXDXDXDXDX",
"DXDXDXDXDXDXDXDXDXDXDXDXDXDXDXDXDXDXDXDXDXDXDXDXDXDXDXDXDXDXDXDXDXDXDXDXDXDXDXDXDXDXDXDX: : o + @ @ @ @ DXDXDXDXDXDXDXDXDXDXDXDX",
"DXDXDXDXDXDXDXDXDXDXDXDXDXDXDXDXDXDXDXDXDXDXDXDXDXDXDXDXDXDXDXDXDXDXDXDXDXDXDXDXDXDXDXDXDXDX$ # X   DXDXDXDXDXDXDXDXDXDXDXDXDXDX",
"DXDXDXDXDXDXDXDXDXDXDXDXDXDXDXDXDXDXDXDXDXDXDXDXDXDXDXDXDXDXDXDXDXDXDXDXDXDXDXDXDXDXDXDXDXDXDXDXDXDXDXDXDXDXDXDXDXDXDXDXDXDXDXDX",
"DXDXDXDXDXDXDXDXDXDXDXDXDXDXDXDXDXDXDXDXDXDXDXDXDXDXDXDXDXDXDXDXDXDXDXDXDXDXDXDXDXDXDXDXDXDXDXDXDXDXDXDXDXDXDXDXDXDXDXDXDXDXDXDX",
"DXDXDXDXDXDXDXDXDXDXDXDXDXDXDXDXDXDXDXDXDXDXDXDXDXDXDXDXDXDXDXDXDXDXDXDXDXDXDXDXDXDXDXDXDXDXDXDXDXDXDXDXDXDXDXDXDXDXDXDXDXDXDXDX",
"DXDXDXDXDXDXDXDXDXDXDXDXDXDXDXDXDXDXDXDXDXDXDXDXDXDXDXDXDXDXDXDXDXDXDXDXDXDXDXDXDXDXDXDXDXDXDXDXDXDXDXDXDXDXDXDXDXDXDXDXDXDXDXDX",
"DXDXDXDXDXDXDXDXDXDXDXDXDXDXDXDXDXDXDXDXDXDXDXDXDXDXDXDXDXDXDXDXDXDXDXDXDXDXDXDXDXDXDXDXDXDXDXDXDXDXDXDXDXDXDXDXDXDXDXDXDXDXDXDX",
"DXDXDXDXDXDXDXDXDXDXDXDXDXDXDXDXDXDXDXDXDXDXDXDXDXDXDXDXDXDXDXDXDXDXDXDXDXDXDXDXDXDXDXDXDXDXDXDXDXDXDXDXDXDXDXDXDXDXDXDXDXDXDXDX",
"DXDXDXDXDXDXDXDXDXDXDXDXDXDXDXDXDXDXDXDXDXDXDXDXDXDXDXDXDXDXDXDXDXDXDXDXDXDXDXDXDXDXDXDXDXDXDXDXDXDXDXDXDXDXDXDXDXDXDXDXDXDXDXDX"
};
