/* XPM */
static char *result[] = {
/* columns rows colors chars-per-pixel */
"64 64 178 2 ",
"   c #010101",
".  c #0C0302",
"X  c #0C0A06",
"o  c #000708",
"O  c #0D0B09",
"+  c #130502",
"@  c #1E0102",
"#  c #15100A",
"$  c #1F1F19",
"%  c #2D0500",
"&  c #240F07",
"*  c #2C0D03",
"=  c #360701",
"-  c #221107",
";  c #291007",
":  c #2A1108",
">  c #351307",
",  c #391507",
"<  c #361609",
"1  c #3C1609",
"2  c #37180D",
"3  c #3A1A0D",
"4  c #00201E",
"5  c #002725",
"6  c #1B2D28",
"7  c #0E312B",
"8  c #272620",
"9  c #262A25",
"0  c #2B2B24",
"q  c #23322D",
"w  c #2D342E",
"e  c #34352D",
"r  c #39372F",
"t  c #213631",
"y  c #223B35",
"u  c #2A3E38",
"i  c #363831",
"p  c #3C3A32",
"a  c #400F00",
"s  c #431402",
"d  c #4B1601",
"f  c #421806",
"g  c #461B0A",
"h  c #4A1C0A",
"j  c #541600",
"k  c #541901",
"l  c #561D0B",
"z  c #461D11",
"x  c #611E00",
"c  c #56220E",
"v  c #4C2514",
"b  c #5F2711",
"n  c #5E2915",
"m  c #552B19",
"M  c #5E2E1A",
"N  c #612205",
"B  c #61240B",
"V  c #712A0F",
"C  c #7A2F0C",
"Z  c #602710",
"A  c #602811",
"S  c #6C2C13",
"D  c #602E1A",
"F  c #63301B",
"G  c #773216",
"H  c #793216",
"J  c #7A3418",
"K  c #77381D",
"L  c #7C3A1E",
"P  c #4F2E22",
"I  c #512F21",
"U  c #593324",
"Y  c #583A2D",
"T  c #423E34",
"R  c #4C3F34",
"E  c #673823",
"W  c #6C3823",
"Q  c #743B23",
"!  c #7C3E24",
"~  c #723E2B",
"^  c #3E4036",
"/  c #34423B",
"(  c #384139",
")  c #434036",
"_  c #4D4237",
"`  c #454339",
"'  c #4A483D",
"]  c #574336",
"[  c #5A4234",
"{  c #52453A",
"}  c #72412E",
"|  c #604032",
" . c #624738",
".. c #764E3B",
"X. c #794F3C",
"o. c #504E42",
"O. c #4F554A",
"+. c #535246",
"@. c #5C5145",
"#. c #53554A",
"$. c #5E574A",
"%. c #5D5A4E",
"&. c #5D5D51",
"*. c #625E51",
"=. c #566659",
"-. c #5E675A",
";. c #646254",
":. c #686557",
">. c #65675A",
",. c #696658",
"<. c #66685A",
"1. c #6C695A",
"2. c #746252",
"3. c #7E6453",
"4. c #716D5E",
"5. c #833719",
"6. c #843A1C",
"7. c #883C1E",
"8. c #913E1C",
"9. c #823E21",
"0. c #97411E",
"q. c #9C421E",
"w. c #A3441D",
"e. c #A8451B",
"r. c #844024",
"t. c #8C4325",
"y. c #84452E",
"u. c #904426",
"i. c #9E4520",
"p. c #9D4826",
"a. c #974729",
"s. c #994729",
"d. c #93523A",
"f. c #9A573D",
"g. c #A34621",
"h. c #A34925",
"j. c #AC4A23",
"k. c #A44C28",
"l. c #AD4E29",
"z. c #B44E26",
"x. c #B14F29",
"c. c #AF5029",
"v. c #B75026",
"b. c #BB5126",
"n. c #B5512A",
"m. c #BC5329",
"M. c #BC5828",
"N. c #B65F3F",
"B. c #B7603F",
"V. c #B9603F",
"C. c #C25529",
"Z. c #CE572C",
"A. c #C5592C",
"S. c #CD5A2D",
"D. c #D3572D",
"F. c #D25C2D",
"G. c #D95F2E",
"H. c #DA5E30",
"J. c #C9602E",
"K. c #D5622F",
"L. c #DA612F",
"P. c #D2682F",
"I. c #DC6230",
"U. c #DC6C31",
"Y. c #DD7033",
"T. c #E37534",
"R. c #E77B36",
"E. c #E97D37",
"W. c #EA7F38",
"Q. c #806453",
"!. c #E48335",
"~. c #EA8137",
"^. c #EB8238",
"/. c #F1943B",
"(. c #F4993B",
"). c #F7A13C",
"_. c #F9A43D",
"`. c #FBA93F",
/* pixels */
":.:.:.:.:.:.:.:.1.;.) O   > q.F.D.Z.!.).`._._.)._._.(.~.R.W.T.K.Z.Z.K.T.^.W.E.E.E.W.E.U.Z.F.S.0.+   X ` ;.1.,.:.:.:.:.:.:.>.:.:.",
":.:.:.:.:.,.:.,.1.;.^ O . & i.F.G.F.!.(.`.)._.)._._.(.^.R.W.R.H.Z.Z.K.T.W.W.E.E.E.W.E.U.D.G.S.0..   X ` ;.1.,.:.:.:.:.:.:.:.:.:.",
":.:.:.:.:.:.,.1.4.:.u       8.F.D.F.!.(._._._._._._.(.^.E.W.R.K.Z.S.H.R.W.W.E.E.E.W.R.U.Z.G.Z.0.    o / ,.4.1.,.:.:.:.:.:.:.:.:.",
":.:.:.:.,.,.;.;.,.;.R < % g i.F.D.S.!.).`._.)._._.`.(.^.E.W.T.K.Z.S.K.Y.W.W.E.E.E.E.R.U.D.K.S.q.> % < _ ;.,.;.;.:.:.:.:.:.>.:.:.",
":.:.:.:.,.;.o.` ( ] y.g.q.g.b.F.Z.D.!._._._._._._._.(.^.~.~.T.K.Z.Z.K.T.W.W.R.W.E.~.E.U.D.F.S.b.q.q.q.y.{ ( ) #.:.<.:.:.:.:.>.:.",
":.:.:.:.1.*.p . o z g.F.K.S.S.F.Z.Z.!.(._._._._._._.(.^.R.~.R.K.Z.F.K.T.W.W.R.W.E.E.R.U.S.S.F.F.S.L.F.i.z   X p ;.1.:.:.:.:.:.:.",
">.>.1.1.1.;.w . # a e.H.I.F.F.F.Z.Z.!._.`._._._._.`.(.^.R.W.T.K.Z.Z.K.T.W.W.W.R.E.~.E.U.F.Z.S.K.L.I.L.w.% -   w ;.4.1.:.:.>.:.:.",
":.:.,.1.4.;.i     1 g.F.F.F.S.F.Z.F.!._.`._._._._._.(.^.R.W.T.K.Z.Z.K.T.W.W.R.W.E.E.R.U.F.S.F.F.F.K.F.g.&     p ;.4.1.:.:.:.:.:.",
",.;.%.+.#.@.~ C V 6.M.U.U.I.K.F.Z.S.Y.(.(.(.(.(.(.(./.W.E.W.R.K.Z.Z.K.Y.W.W.E.E.E.W.R.U.S.F.F.F.F.F.F.z.5.V H } +.O.+.%.;.,.:.:.",
"1.&.T $ 5 I k.Z.C.C.U.E.E.T.U.F.Z.F.Y.^.^.^.^.^.^.~.~.W.W.W.T.K.Z.Z.K.R.W.W.E.E.E.W.R.U.D.S.F.S.F.F.F.S.C.C.C.h.P 4 $ T *.1.:.:.",
"1.&.9 .   d z.L.H.G.T.W.^.W.U.S.Z.F.U.T.~.R.R.R.R.R.R.W.W.W.R.K.Z.Z.K.T.W.W.E.E.E.W.R.U.F.S.S.K.F.S.F.F.G.I.I.z.d   . w *.4.,.,.",
"4.&.7     s j.F.D.G.Y.W.^.~.U.F.Z.F.U.R.^.E.E.R.E.W.R.E.W.E.T.K.Z.F.K.T.W.W.E.E.E.W.R.U.D.S.F.S.F.F.F.F.F.L.L.g.f o   q *.4.1.1.",
";.$.Y k s S n.I.K.K.T.E.^.E.U.D.Z.D.U.E.W.E.E.E.E.E.W.R.W.W.T.K.Z.Z.K.T.~.W.E.E.E.W.R.U.S.F.F.F.F.K.S.F.F.K.F.z.S f k Y %.:.*.*.",
"y | s.j.g.z.P.T.T.T.T.E.^.W.U.D.S.D.Y.E.W.E.E.W.E.E.E.W.W.W.T.K.Z.Z.K.T.W.W.E.E.E.W.R.U.S.Z.F.S.F.S.F.F.F.F.F.C.j.e.j.a.Y y p p ",
"  N b.H.G.K.T.W.W.E.E.E.~.E.Y.S.Z.S.U.R.W.E.W.R.E.E.E.E.W.W.R.K.Z.Z.K.R.W.W.E.E.E.W.R.U.S.S.D.F.F.S.F.S.F.S.F.F.K.L.L.b.l   o   ",
"  x C.I.G.I.T.^.~.E.E.E.W.E.U.F.Z.F.U.E.W.E.E.E.E.E.W.R.W.~.T.K.Z.Z.K.Y.W.W.E.E.E.W.R.U.D.S.F.F.F.F.F.F.F.F.F.F.F.L.L.b.k       ",
"  b b.K.D.K.Y.~.W.E.E.E.W.E.Y.F.Z.D.U.E.~.W.E.E.E.E.E.E.E.~.T.K.Z.Z.K.T.W.E.E.E.E.E.T.U.S.S.S.F.F.K.S.F.F.F.F.S.F.J.F.z.c       ",
"  b b.F.D.K.T.E.W.E.E.E.W.E.U.S.Z.S.U.E.~.W.E.E.E.E.E.E.W.~.T.K.Z.Z.K.T.W.E.E.E.E.~.E.U.F.S.F.F.F.S.F.F.F.F.F.F.F.G.K.z.c       ",
"  b z.L.Z.K.T.E.W.E.E.E.W.E.U.F.Z.S.U.E.W.E.E.E.E.E.E.E.W.W.T.K.Z.Z.K.T.~.W.E.E.E.~.R.U.S.F.F.F.F.S.F.S.F.F.S.F.F.K.G.z.c       ",
"  b b.F.D.K.T.W.W.E.E.E.W.E.U.D.Z.F.U.E.W.E.E.E.E.W.E.E.E.W.T.K.Z.Z.L.T.W.W.E.E.E.E.T.U.F.Z.F.F.F.F.F.F.F.S.K.F.F.S.F.v.c     . ",
"  B v.K.F.K.T.E.E.E.E.E.~.E.U.F.Z.S.U.R.W.E.E.E.E.E.E.E.W.W.T.K.Z.Z.K.R.W.W.E.E.E.W.E.U.D.S.F.K.F.F.F.F.F.F.F.F.S.G.H.z.c       ",
"  B v.G.F.F.T.E.W.E.E.E.~.R.U.F.Z.F.U.E.W.E.E.E.E.E.E.E.W.W.R.K.Z.Z.K.T.W.W.E.E.E.~.R.U.F.S.F.S.K.S.S.F.K.S.S.F.S.F.G.z.c       ",
"  b v.G.Z.K.T.E.~.E.E.E.E.E.U.F.Z.D.U.W.W.E.E.E.E.E.E.E.E.W.T.K.Z.Z.K.T.W.W.E.E.E.W.R.U.F.Z.F.F.S.F.F.F.S.F.F.F.F.K.K.z.c       ",
"  b v.G.D.K.T.E.E.E.E.E.E.E.U.F.S.S.U.E.W.E.E.E.E.E.E.E.E.W.R.K.Z.Z.K.T.W.W.E.E.E.E.R.U.S.Z.F.F.F.F.S.F.F.F.S.F.S.G.F.z.c       ",
"  b z.G.Z.K.T.E.E.E.E.E.W.E.U.D.Z.S.Y.W.W.W.E.E.E.E.E.E.W.W.T.K.Z.Z.K.T.~.E.E.E.E.W.E.U.Z.Z.F.S.F.F.S.F.S.F.S.F.S.K.K.z.c       ",
"  b v.L.F.K.T.R.E.E.E.E.W.E.U.F.Z.D.U.E.W.E.E.E.E.E.E.E.W.W.T.K.Z.Z.K.T.~.E.E.E.E.W.E.U.Z.D.F.F.F.S.K.F.K.F.F.F.S.G.H.z.c       ",
"  Z v.F.Z.G.T.E.E.E.E.E.~.E.U.D.Z.F.U.E.W.E.E.E.W.R.E.E.~.W.T.K.Z.Z.K.T.E.~.E.E.E.W.E.U.S.D.J.S.F.S.F.F.F.S.F.F.F.K.G.x.c       ",
"  Z v.L.F.K.T.E.E.E.E.E.E.!.U.F.Z.S.U.E.W.R.W.W.E.W.E.E.~.^.T.K.Z.Z.K.R.~.E.E.E.E.E.E.U.F.Z.G.F.F.F.S.F.F.F.S.F.F.F.F.x.c     . ",
"  b b.K.D.K.T.E.~.E.E.E.W.E.U.F.Z.S.U.E.~.W.W.W.W.W.W.W.W.~.R.K.Z.S.K.T.^.W.W.W.~.~.E.U.S.Z.S.F.F.F.F.F.S.K.F.F.S.G.H.z.c       ",
"  b b.F.D.K.T.~.W.E.E.E.W.E.U.D.Z.F.U.E.^.W.~.W.W.W.W.W.W.^.T.K.Z.S.L.T.^.^.E.W.~.~.E.U.F.Z.K.F.S.F.K.S.F.F.S.F.F.F.G.z.c       ",
"  b z.L.Z.K.Y.E.W.E.E.E.W.E.U.F.Z.F.U.T.T.T.T.T.T.T.Y.T.T.T.T.K.D.Z.K.Y.T.T.T.T.T.T.T.K.F.S.F.F.F.S.S.F.S.F.S.F.S.K.K.z.c       ",
"  b b.F.D.K.T.~.W.E.E.E.W.E.U.F.S.D.F.K.K.K.K.K.K.K.K.K.K.K.K.D.S.F.F.K.L.K.K.K.K.K.K.K.F.F.S.F.F.F.F.F.F.F.F.F.S.G.F.z.c       ",
"  Z z.K.D.K.T.W.W.E.W.W.W.E.U.F.F.F.F.S.D.D.D.S.S.D.D.S.D.S.S.F.K.F.F.D.Z.D.D.S.Z.S.D.F.F.F.F.F.F.F.S.F.S.F.F.S.F.K.G.z.c       ",
"  B v.G.D.K.T.E.W.E.W.W.~.W.T.K.G.F.F.K.F.F.F.G.F.F.F.K.F.G.D.G.K.F.K.F.F.K.G.K.G.F.F.F.G.G.F.F.F.F.S.F.K.S.F.F.F.F.G.v.c       ",
"  b v.G.Z.K.T.E.E.E.E.R.W.T.P.S.C.S.S.S.S.S.S.S.S.S.S.S.S.S.F.S.Z.S.S.S.S.S.A.Z.S.S.S.Z.S.S.S.F.S.F.K.S.F.F.F.F.S.F.K.x.c       ",
"  Z v.K.Z.K.T.E.W.R.Y.U.U.U.A.k.k.k.k.k.k.k.k.k.k.k.k.k.k.k.k.k.k.k.k.k.k.k.k.k.k.k.k.k.k.p.k.m.F.F.F.F.F.F.S.F.F.K.F.z.c       ",
"  b z.G.Z.K.T.E.W.R.U.Z.D.Z.l.Q Q ! ! ! ! ! ! ! } ! ! ! ! ! ! Q ! ! ! ! ! ! ! ! ! ! ! ! ! Q ! x.F.K.F.F.S.F.F.S.F.F.G.z.c       ",
"  b v.G.D.K.T.~.^.W.U.D.G.G.j.Q W Q Q E E W W W K W W W W E W W W W E E W W W W W W W ~ Q E Q l.F.L.F.F.F.F.F.F.F.F.G.z.c       ",
"  Z v.K.F.K.T.W.^.E.U.D.F.F.l.! Q ! Q ! ! Q ! Q ! Q ! ! Q ! ! Q ! ! ! ! ! ! ! ! Q ! ! ! 9.Q ! x.F.G.F.F.S.S.K.F.F.F.I.z.c       ",
"  Z z.G.D.F.U.T.T.Y.J.n.n.n.p.! Q ! u.h.k.k.k.k.k.k.k.h.k.k.k.k.k.k.k.p.k.k.p.h.k.k.k.u.Q Q ! k.n.m.n.A.F.F.F.S.S.K.F.z.c       ",
"  Z v.G.F.F.K.K.L.K.l.r.r.r.r.! Q ! k.A.S.S.S.A.S.S.S.S.A.S.S.S.A.S.S.A.A.Z.A.A.Z.S.A.k.Q ! ! r.t.9.r.l.S.F.F.S.F.F.G.z.c       ",
"  B b.I.F.F.D.D.F.S.p.W W Q Q ! Q Q l.K.L.G.F.G.G.G.F.G.L.F.G.G.H.F.H.G.G.G.L.L.G.L.F.j.Q Q ! Q Q E Q k.S.I.F.F.F.K.H.v.l   . o ",
"  x C.I.I.F.K.K.L.F.j.Q Q 6.! Q W Q k.S.F.F.G.I.L.L.L.G.L.H.G.G.G.G.I.K.L.L.L.F.F.F.S.k.W E Q Q ! W Q l.K.I.G.G.G.I.I.v.j       ",
"5 U j.C.C.C.m.C.A.m.p.! Q } r.u.r.u.x.D.F.S.S.C.b.m.C.C.C.M.C.m.C.C.m.C.C.m.C.Z.F.K.S.c.t.t.u.9.! Q ! h.m.C.C.C.m.C.A.k.U 5 9 0 ",
"#.@.~ C H H H H H J K 6.~ 9.k.m.C.M.A.F.I.F.b.5.S G G H J J J J H G H H G S 5.b.F.L.F.A.m.M.M.k.! } 9.! G H H H G C C ~ @.#.#.#.",
"4.%.q . . + . . . . M } ! 9.x.G.I.F.F.F.F.G.g.g   + . . . . . . . . . . +   g j.G.F.F.F.F.H.F.l.9.Q ! n   . . . . . . w *.4.1.1.",
"1.%.6             o m Q E ! l.F.G.F.F.L.I.I.j.g   .                     .   g z.I.I.L.F.F.G.F.n.r.! 9.m               q *.4.1.,.",
"1.*.r     O   .   : F y.Q 9.l.F.K.D.S.F.F.F.j.h   +     .       .     . .   h j.F.F.F.F.F.F.F.c.! ! } D &   . o O O   r *.1.,.:.",
",.;.+.) ' ` 8 .   , 7.c.l.c.M.D.G.F.n.i.i.i.J ,   .     .       .       .   , 5.g.q.g.m.F.K.S.c.} ! } A &   . 8 ` ' ` +.;.1.:.:.",
":.:.:.;.:.*.r .   g h.D.F.S.S.F.G.F.g.g   , & .         o         o         . * >   h g.F.I.F.c.7.! r.F &   o p *.:.;.:.:.:.:.:.",
":.:.1.1.4.;.p .   h j.I.I.F.K.S.G.F.i.. +     . .   o       o           . .     .   > i.F.I.S.c.! L } A &   X ) :.4.1.,.:.:.:.:.",
":.:.:.:.4.*.r .   h g.F.K.F.F.F.K.S.i.>   .         .               o           .   g g.F.L.S.c.r.} r.F &   X p ;.1.1.:.:.:.:.:.",
":.:.:.:.1.;.r .   h h.D.F.F.F.F.G.F.i.,   .       o                             .   g g.F.L.S.j.! ! } S -   X p ;.1.,.:.:.:.:.:.",
":.:.,.>.1.*.r .   h g.G.H.F.F.S.K.F.i.,   X       .       o     o           o   .   g g.G.L.F.c.! Q ! F -   X p ;.1.,.:.:.:.:.:.",
":.:.:.:.1.*.p .   h g.G.K.F.F.F.G.F.q.,   .     . .   . . .   .   . . o .   .   .   g g.F.L.S.l.r.Q } A -   X p ;.,.>.:.:.:.:.>.",
">.:.:.:.1.;.r .   g g.F.G.F.S.F.K.F.g.>                                         .   g g.K.L.F.c.! ! r.F ;   X p ;.,.>.:.:.:.:.:.",
":.:.,.:.1.*.r .   g g.F.L.F.F.F.G.F.q.,   . + ; ; ; ; - ; - ; - ; ; ; ; ; ; & + .   g g.F.L.S.c.r.! } D &   X T ;.,.:.:.,.:.:.:.",
":.:.:.:.1.*.r .   h g.D.F.F.F.F.K.F.w.,   . 2 M F M F M F F A M M M F A F F n 3 .   g g.F.L.F.c.} ! 9.M &   X p ;.1.,.:.:.:.:.:.",
",.:.:.:.1.*.p .   h h.G.G.Z.S.F.G.F.q.>   + v ! r.} ! ! } r.! ! ! ! } } } r.Q v .   g w.F.I.F.j.6.! ! M &   X p ;.1.:.:.:.:.:.:.",
":.:.:.,.4.*.e   o d e.G.G.F.G.F.G.G.w.=   . h 9.t.6.r.6.6.r.6.r.9.9.7.7.7.r.K h . o s e.G.I.D.z.L K 6.Z @ o   r *.1.,.:.:.:.:.:.",
":.:.>.,.1.&.r     s e.K.G.D.F.F.L.K.w.=   . h J r.6.L L L L r.L 6.! L L 6.r.K g     s e.G.I.F.j.! L ! n @     r :.<.:.:.:.:.:.>.",
":.:.:.:.1.;.o.r q [ d.B.V.B.B.V.V.B.d.R t p [ ..X.......................X.X...[ p t _ d.N.V.B.f.X...X. .T r p o.:.<.:.:.:.:.:.:.",
">.:.:.:.:.:.;.*.&.;.2.3.Q.3.3.3.3.3.2.*.&.&.:.;.;.:.:.2.:.2.;.:.:.2.:.2.:.:.*.*.*.%.*.2.Q.Q.3.2.2.:.:.*.*.*.&.;.:.:.:.:.:.:.:.:.",
":.:.:.:.:.:.1.1.1.,.;.=.=.=.=.=.=.=.>.1.1.1.<.:.:.<.:.:.<.<.:.:.>.>.:.,.:.<.:.1.1.1.,.:.=.=.=.-.>.,.:.1.<.1.1.:.:.:.:.>.:.:.:.:."
};
