/* XPM */
static char *result[] = {
/* columns rows colors chars-per-pixel */
"64 64 42 1 ",
"  c #667E4C",
". c #6E7B4B",
"X c #777E47",
"o c #77754A",
"O c #79764B",
"+ c #707F49",
"@ c #8D6D47",
"# c #866F4A",
"$ c #8B6E48",
"% c #966746",
"& c #9C6546",
"* c #936946",
"= c #9D6847",
"- c #9C6748",
"; c #936D49",
": c #9E6B49",
"> c #837547",
", c #847249",
"< c #8A7049",
"1 c #9E704A",
"2 c #A16346",
"3 c #A36748",
"4 c #A16E4B",
"5 c #A3754E",
"6 c #68973F",
"7 c #669C3D",
"8 c #6C9E3B",
"9 c #77A62F",
"0 c #78A72F",
"q c #6BA039",
"w c #74A433",
"e c #4B8D4B",
"r c #5E8F47",
"t c #56834D",
"y c #5A864B",
"u c #518F49",
"i c #5C884A",
"p c #569545",
"a c #5D9444",
"s c #698747",
"d c #6A8748",
"f c #699442",
/* pixels */
"55555555555555554&&&&&&&&&&2&&%&&&&&%&&&&&&&&&&&22%,otepfw999www",
"55555555555555554&&&&&&&&&&&&&&&&&&&&&&&&&&&&&&222=,+tepqq9wwwww",
"5555555555555555:&&&&&&&&&&&&:&&&&====&&=&&&&&&&2&%$O iafqwwwwww",
"4555:5:45551454:&&&&&&&&:=:::::=&=::::==:::&&&&&&&&@,O+dffqqqwww",
":::::::::::-:::-&&&&&&&=::5:54555:451515554:&&&&22&%*$>Xsapfqww0",
"&&&&=&&&&&&&----&&&&&&==455555555555555555544&&&&&&&&%*,diua7w00",
"&&&&&&&&&&&&&&&&&&&&&&=:555555555555555555544&&&&&&222&$O yrfqww",
"&&&&&&&&&&&&2&&-&44=4&=5555555555544:51555554:==&::4333;#Odsffqf",
"&&&&&&&&&&&&&&&&5555555555555555:::=:::45555555545554344%$OXdfpp",
"&&&&&&&&&&&&&&&&5555555555555555:&&&&&&44555555555555555--;,+iee",
"&&&=&&==&&&&&&=:55555555555555554&&&&&&:555555555555555533-$O tt",
":::::::::::::::45555555555555555:::&&:::5555555555555555333;,o..",
"1415555:445554455555555555555555545:1555555555555555555554::;###",
"555555555555555555555555555555555555555555555555555555555554:*%%",
"5555555555555555555555555555555555555555555555555555555555544&&2",
"55555555555555555555555555555555555555555::5515:5555555555553433",
"5555555555555555555555555555555555555555:::&===55555555555555554",
"555555555555555555555555555555555555555::&&&&&=:5555555555555555",
"55555555555555555555555555555555555555554=&&&&=:5555555555555555",
"55555555555555555555555555555555555555554::&:=345555555555555555",
"55555555555555555555555555555555555555555::555555555555555555555",
"5555555555555555555555555555555555555555555555555555555555555555",
"5555555555555555555555555555555555555555555555555555555555555555",
"5555555551::5544555555554555555555555555555555555555555555555555",
"5555::::::::&-441:::&&-4:4:4455555555555555555555555555555555555",
"5555:-:&-&&:&&&&::-:&&&&&&::555555555555555555555555555555555555",
"5555&&&&&&&&&&&&&&&&&&&&&&&:455555555555555555555555555555555555",
":515&&&2&&&&&&&&&&&&&&&&&&&&=44555555555555555555555555555554555",
":::&&&&&&&&&&&&&&&&&&&&&&&&&4==:::-&:-:455555555555555555=&&34=:",
"&-&&&&&&&&&&2&&&&&&&&&&&&&&&&&&&&&&&&-::4555555555555555=&&&3==&",
"&&&--&-&&&-&&&-&&&&-&&-&&&-&&&&&&&&&&&-:4555555555555554=&&&&&&&",
"::::::4:&-4::::4--::4-44&-4&&&&&&&&&&&&-=4454544555545=4=&&&&&&&",
"411555554445455544555555:54=&&&&&&&&&&&&===:=::::=:=:::-&&&&&&&&",
"5555555555555555555555555554&&&&&&&&%&&&=&=&=&&&&=&=&&&&&&&&&&&&",
"55555555555555555555555555544&&&&&&&-&&&&&&&&&&&&&&&-&&-&-&&&&&&",
"55555555555555555555555555554444&:::::&&::==:::::::4:::::::::::&",
"5555555555555555555555555555555544555:445444:44554:5155:4455:154",
"5555555555555555555555555555555555555555555555555555555555551555",
"5555555555555555555555555555555555555555555555555555555555555555",
"5555555555555555555555555555555555555555555555444444:5:555555555",
"555555555555555555555555555555555555555555554::::::::::455555555",
"555555555555555555555555555555555555555555554-&&&&&&&--::5555555",
"55555555555555555555555555555555555555555555:-&-&&&&&&-:55555555",
"555555555555554455554555555555555555555555554:--=4::&:::45555555",
"55555555555544&&:==&==:5555555555555555555555554444:445555555555",
"555555555555==&&&&&&&&==4555555555555555555555555555555555555555",
"555555555555==&&&&&&&&&=4555555555555555555555555555555555555555",
"5555555545===&&&&&&&&&&=::54154555555545555555555555544545455555",
"55554::=:4==&&&&&&&&&&&&--:::-:45555::::5555555555554:=::::44333",
"5555=&=&&=&&&&&&&&&&&&&&&&&&&&&:4554:--:555555555555:=&&&=&&&22&",
"5555&&&&&&&&=&&&----&&&&&&&&&&::4554:-::555555555555=&&&&&&&&%%%",
"5155&&&&&&&&=::=:-44&&::::::::::55554:::5555555555555:3&&&&&$$,,",
"====&&&&&&&=::44555455554454:45555545555555555555555554322&*#o..",
"==&=&&&&&&=:4555555555555555555555555555555555555555555432&@O tt",
"&=&=&===&&=:555555555555555555555555555555555555555555543&*>+iee",
"====3==1==:555555555555555555555555555555555555555555544;<>Xdrpp",
"51155555:555555555555555555555555555555555555555555533:*#O.sf677",
"555555555555555555555555555555555555555555555555555533-$O yaf8ww",
"555555555555555555555555555555555555555555155555555:::;,.yup7w00",
"55555555555555555555555555554554554445455:515544451:;$>Xsra7qw0w",
"55555555555555555555555555554:::::--::::&:=:34-&3::$,O+dff78wwww",
"5555555555555555555555555555:&&&-&&&&--&&&&=&&&&33:<O ir68wwwwww",
"555555555555555555555555555:&&&&&%&&&&&&&&&&&&&&22%,.tep7w00wwww",
"5555555555555555555555555555&&&&&&&&&&&&&&&&&&&22&%,.tea7w0wwwww"
};
