/* XPM */
static char *result[] = {
/* columns rows colors chars-per-pixel */
"64 64 209 2 ",
"   c #000000",
".  c #000009",
"X  c #090804",
"o  c #180802",
"O  c #1C1102",
"+  c #1F1D11",
"@  c #19001B",
"#  c #3B0000",
"$  c #281403",
"%  c #381D1B",
"&  c #2C1107",
"*  c #3C2907",
"=  c #35210F",
"-  c #3B2605",
";  c #222013",
":  c #382512",
">  c #4F0000",
",  c #5D1F00",
"<  c #422B03",
"1  c #432D09",
"2  c #482706",
"3  c #5B2000",
"4  c #4D340A",
"5  c #472C18",
"6  c #4D3219",
"7  c #5B3B1D",
"8  c #57381C",
"9  c #573C0F",
"0  c #703800",
"q  c #672D00",
"w  c #5D3927",
"e  c #613F21",
"r  c #314639",
"t  c #5F4311",
"y  c #6D4300",
"u  c #734E01",
"i  c #634513",
"p  c #6D4C15",
"a  c #704F15",
"s  c #735116",
"d  c #76521A",
"f  c #7E591A",
"g  c #7A5618",
"h  c #48462E",
"j  c #4E4B32",
"k  c #474B37",
"l  c #575439",
"z  c #504D34",
"x  c #6C4726",
"c  c #6E4924",
"v  c #734B29",
"b  c #7D522D",
"n  c #7D5035",
"m  c #5A6A52",
"M  c #666243",
"N  c #696545",
"B  c #6D6A48",
"V  c #736F4C",
"C  c #75714E",
"Z  c #676E52",
"A  c #6A7355",
"S  c #797956",
"D  c #854618",
"F  c #835C1A",
"G  c #8A5F10",
"H  c #94501E",
"J  c #835300",
"K  c #8A621D",
"L  c #8F6311",
"P  c #986D1F",
"I  c #966200",
"U  c #82542E",
"Y  c #9C5725",
"T  c #865932",
"R  c #8B5B34",
"E  c #835533",
"W  c #976B21",
"Q  c #9B6D27",
"!  c #9F7122",
"~  c #916036",
"^  c #956339",
"/  c #99663B",
"(  c #9D693B",
")  c #9A6637",
"_  c #A37423",
"`  c #AA7A23",
"'  c #B17F29",
"]  c #A26C3D",
"[  c #A96E3D",
"{  c #A87438",
"}  c #B87F3E",
"|  c #8E6F42",
" . c #827F58",
".. c #837F57",
"X. c #A36C41",
"o. c #A77040",
"O. c #AB7241",
"+. c #B17745",
"@. c #B58229",
"#. c #BA842B",
"$. c #BD8438",
"%. c #D38C00",
"&. c #D1900F",
"*. c #F2A200",
"=. c #F3A60C",
"-. c #EAA114",
";. c #F3A81E",
":. c #F3A718",
">. c #C78E2D",
",. c #CA912F",
"<. c #D8992E",
"1. c #CE9431",
"2. c #D59933",
"3. c #DC9E34",
"4. c #D29735",
"5. c #DFA036",
"6. c #F4A922",
"7. c #F3AB2D",
"8. c #FAAE27",
"9. c #E2A236",
"0. c #E5A539",
"q. c #E8A739",
"w. c #EDAB3A",
"e. c #EBA836",
"r. c #F4AE34",
"t. c #F2AF3B",
"y. c #F4B03C",
"u. c #FBB53D",
"i. c #FFB93E",
"p. c #F9B134",
"a. c #FEB22C",
"s. c #858059",
"d. c #8F895F",
"f. c #8C865D",
"g. c #9C8A58",
"h. c #BD8340",
"j. c #A58657",
"k. c #A7915A",
"l. c #928C61",
"z. c #979367",
"x. c #8E8B62",
"c. c #BC9965",
"v. c #A6A06F",
"b. c #A7A170",
"n. c #A9A472",
"m. c #AFAC7A",
"M. c #B4AD79",
"N. c #B0AA77",
"B. c #BBB47E",
"V. c #B7B07B",
"C. c #CA9D4D",
"Z. c #D19243",
"A. c #D5A44F",
"S. c #E4A846",
"D. c #FFBA41",
"F. c #F5B64C",
"G. c #F6B443",
"H. c #F6BD5B",
"J. c #F5BA55",
"K. c #C19D67",
"L. c #C9AC70",
"P. c #E7BB69",
"I. c #F3BF62",
"U. c #FFC143",
"Y. c #FFC45B",
"T. c #F6C263",
"R. c #F7C86F",
"E. c #FDCA6A",
"W. c #FAC667",
"Q. c #F8CD76",
"!. c #F8CF7A",
"~. c #FDD47D",
"^. c #F4D07F",
"/. c #EEC978",
"(. c #BEB781",
"). c #C3BC84",
"_. c #CBC48A",
"`. c #CCC68B",
"'. c #D0CA8E",
"]. c #D1C589",
"[. c #DBD395",
"{. c #DBD799",
"}. c #F9D684",
"|. c #FADA8A",
" X c #FAD886",
".X c #E6DE9D",
"XX c #EBDF9D",
"oX c #E6CD88",
"OX c #FFE28F",
"+X c #E7E09F",
"@X c #EAE19E",
"#X c #FCE192",
"$X c #FDE699",
"%X c #FDE89C",
"&X c #F5E49A",
"*X c #EDE5A2",
"=X c #E9E4A2",
"-X c #F2E5A2",
";X c #F3EBA6",
":X c #FDEDA3",
">X c #F5EEA9",
",X c #F8EFA9",
"<X c #FFF2A6",
"1X c #FFF5AD",
"2X c #FFF8AF",
"3X c #FEF7B0",
"4X c #FFFCB3",
"5X c #FFFFB9",
"6X c None",
/* pixels */
"6X6X6X6X6X6X6X6X6X6X6X6X6X6X6X6X6X6X6X6X6X6X6X6X6X6X6X6X6X6X6X6X6X6X6X6X6X6X6X6X6X6X6X6X6X6X6X6X6X6X6X6X6X6X6X6X6X6X6X6X6X6X6X6X",
"6X6X6X6X6X6X6X6X6X6X6X6X6X6X6X6X6X6X6X6X6X6X6X6X6X6X6X6X6X6X6X6X6X6X6X6X6X6X6X6X6X6X6X6X6X6X6X6X6X6X6X6X6X6X6X6X6X6X6X6X6X6X6X6X",
"6X6X6X6X6X6X6X6X6X6X6X6X6X6X6X6X6X6X6X6X6X6X6X6X6X6X6X6X6X6X6X6X6X6X6X6X6X6X6X6X6X6X6X6X6X6X6X6X6X6X6X6X6X6X6X6X6X6X6X6X6X6X6X6X",
"6X6X6X6X6X6X6X6X6X6X6X6X6X6X6X6X6X6X6X6X6X6X6X6X6X6X6X6X6X6X6X6X6X6X6X6X6X6X6X6X6X6X6X6X6X6X6X6X6X6X6X6X6X6X6X6X6X6X6X6X6X6X6X6X",
"6X6X6X6X6X6X6X6X6X6X6X6X6X6X6X6X6X6X6X6X6X6X6X6X6X6X6X6X6X6X6X6X6X6X6X6X6X6X6X6X6X6X6X6X6X6X6X6X6X6X6X6X6X6X6X6X6X6X6X6X6X6X6X6X",
"6X6X6X6X6X6X6X6X6X6X6X6X6X6X6X6X6X6X6X6X6X6X6X6X6X6X6X6X6X6X6X6X6X6X6X6X6X6X6X6X6X6X6X6X                        6X6X6X6X6X6X6X6X",
"6X6X6X6X6X6X6X6X6X6X6X6X6X6X6X6X6X6X6X6X6X6X6X6X6X6X6X6X6X6X6X6X6X6X6X6X6X6X6X6X6X6X6X6Xs K F F F F F F F F K s 6X6X6X6X6X6X6X6X",
"6X6X6X6X6X6X6X6X6X6X6X6X6X6X6X6X6X6X6X6X6X6X6X6X6X6X                6X6X6X6X6X6X6X6X  i 1.t.q.0.q.0.0.0.q.q.t.1.s   6X6X6X6X6X6X",
"6X6X6X6X6X6X6X6X6X6X6X6X6X6X6X6X6X6X6X6X6X6X6X6X6Xl z.(.N.N.N.M.B.z.z 6X6X6X6X6X6X* F 1.t.D.u.D.D.D.D.D.D.D.U.w.K   6X6X6X6X6X6X",
"6X6X6X6X6X6X6X6X6X6X6X6X6X6X6X6X6X6X6X6X6X6X      S .X4X3X1X1X4X4X+Xs.  6X6X6X6X  f 3.u.u.t.t.t.y.t.t.t.y.y.D.5.F   6X6X6X6X6X6X",
"6X6X6X6X6X6X6X6X6X6X6X6X6X6X6X6X6X6X6X6X6Xj V.[._.[.<X5X4X5X4X4X5X4X=Xm.m     4 _ 5.y.i.u.t.u.0.@.P ! _ ! _ ` ! p 6X6X6X6X6X6X6X",
"6X6X6X6X6X6X6X6X6X6X6X6X6X6X6X6X6X6X6X6X+ b.;X5X4X4X1X1X<X<X<X:X,X<X4X&Xg.o & W q.D.y.y.t.t.G.3.d   .   . . . . 6X6X6X6X6X6X6X6X",
"6X6X6X6X6X6X6X6X6X6X6X6X6X6X6X6X6X6X  C _.;X1X4X4X4X4X<X~.T.E.E.E.E.E.T.S.<.2.9.t.u.y.y.y.y.u.9.{ n R R R R ^ b 5   6X6X6X6X6X6X",
"6X6X6X6X6X6X6X6X6X6X6X6X6X6X6X6X6X6X  l.;X5X4X1X2X<X;XoXA.%.%.%.%.%.-.8.p.G.i.u.y.t.y.y.y.y.u.q.h.X.O.O.O.O.+.( 7   6X6X6X6X6X6X",
"6X6X6X6X6X6X6X6X6X6X6X6X6X6X6X6X6X6X  s..X4X2X2X4X-XL.) a < 4 *   F 5.u.y.y.y.y.y.y.y.y.y.y.u.S.+.X.X.o.O.O.O.) 8   6X6X6X6X6X6X",
"6X6X6X6X6X6X6X6X6X6X6X6X6X6X6X6X6X6X  s.+X4X2X2X4XXXj.#       $ f #.0.u.y.y.y.y.y.y.t.y.y.y.y.q.$.^ T b b U T v 5 6X6X6X6X6X6X6X",
"6X6X6X6X6X6X6X6X6X6X6X6X6X6X6X6X6X6X  s..X4X2X2X4X+Xs.  6X6X  F 3.D.y.t.y.y.y.t.y.y.y.t.t.t.u.S.h.E 5 .         6X6X6X6X6X6X6X6X",
"6X6X6X6X6X6X6X6X6X6X6X6X6X6X6X6X6X6X  s.+X4X2X2X4X.XB   6X6X  p 9.D.u.y.t.y.y.y.t.y.y.y.t.u.u.0.Q % 6X6X6X6X6X6X6X6X6X6X6X6X6X6X",
"6X6X6X6X6X6X6X6X6X6X6X6X6X6X6X6X6X6X  s.+X4X2X2X4X=Xb.h 6X6X1 ! 9.D.y.y.y.y.y.y.y.y.y.y.y.t.G.1.s   6X6X6X6X6X6X6X6X6X6X6X6X6X6X",
"6X6X6X6X6X6X6X6X6X6X6X6X6X6X6X6X6X6X  d.;X5X4X2X3X1X,X'.Z 3 >.w.t.t.y.y.y.y.y.y.y.y.t.t.u.w.Z.] e   6X6X6X6X6X6X6X6X6X6X6X6X6X6X",
"6X6X6X6X6X6X6X6X6X6X6X6X6X6X6X6X6X6X6XV (.*X1X4X4X4X5X;XS q 9.D.y.t.y.y.y.y.y.y.y.y.y.y.i.0.{ w %   6X6X6X6X6X6X6X6X6X6X6X6X6X6X",
"6X6X6X6X6X6X6X6X6X6X6X6X6X6X6X6X6X6X6X6X  z.*X4X4X4X5X+XA , <.u.y.t.y.y.y.t.y.t.y.t.t.u.i.5.F   6X6X6X6X6X6X6X6X6X6X6X6X6X6X6X6X",
"6X6X6X6X6X6X6X6X6X6X6X6X6X6X6X6X6X6X6X6X6Xj n.`.).)._.n.r y 2.u.G.y.t.y.y.y.t.y.t.t.y.t.S.$.p   6X6X6X6X6X6X6X6X6X6X6X6X6X6X6X6X",
"6X6X6X6X6X6X6X6X6X6X6X6X6X6X6X6X6X6X6X6X6X6X              f 3.D.y.y.y.y.y.y.y.y.y.t.u.S.+.n 5   6X6X6X6X6X6X6X6X6X6X6X6X6X6X6X6X",
"6X6X6X6X6X6X6X6X6X6X6X6X6X6X6X6X6X6X6X6X6X6X6X6X6X6X6X6X  K q.D.u.t.t.t.t.t.t.t.y.y.i.5.Q @ 6X6X6X6X6X6X6X6X6X6X6X6X6X6X6X6X6X6X",
"6X6X6X6X6X6X6X6X6X6X6X6X6X6X6X6X6X6X6X6X6X6X6X6X6X6X6X6X  a >.w.t.t.u.t.t.u.t.G.y.y.D.3.u   6X6X6X6X6X6X6X6X6X6X6X6X6X6X6X6X6X6X",
"6X6X6X6X6X6X6X6X6X6X6X6X6X6X6X6X6X6X6X6X6X6X6X6X6X6X6X6X6X6X* ! 9.G.u.t.y.t.t.t.y.y.i.5.q   6X6X6X6X6X6X6X6X6X6X6X6X            ",
"6X6X6X6X6X6X6X6X6X6X6X6X6X6X6X6X6X6X6X6X6X6X6X6X6X6X6X6X6X6X  a 9.D.y.t.y.t.t.u.y.y.p.S.L.z.k 6X6X6X6X6X6X6X6X6X6X= w v x x c c ",
"6X6X6X6X6X6X6X6X6X6X6X6X6X6X6X6X6X6X6X6X6X6X6X6X6X6X6X6X6X6X  F 5.D.t.t.t.t.u.t.y.r.6.T.,X=X .  6X6X6X6X6X6X      6 ~ O.o.X.] ] ",
"6X6X6X6X6X6X6X6X6X6X6X6X6X6X6X6X6X6X6X6X6X6X6X6X6X6X6X6X6X6X6Xi W >.q.u.G.t.t.t.y.t.;.W.<X4X+Xn.j         % v T b R ( O.O.O.O.O.",
"6X6X6X6X6X6X6X6X6X6X6X6X6X6X6X6X6X6X6X6X6X6X6X6X6X6X6X6X6X6X6X6X  a 3.D.G.y.y.y.y.r.6.T.%X4X5X-Xz.O : & o i ) O.O.o.o.( ) ) ( ( ",
"6X6X6X6X6X6X6X6X6X6X6X6X6X6X6X6X6X6X6X6X6X6X6X6X6X6X6X6X6X6X6X6X  g 5.u.y.y.t.y.y.r.;.T.:X5X4X1X;X'.j.D R ^ ] O.O.O.+.( v 6 8 w ",
"6X6X6X6X6X6X6X6X6X6X6X6X6X6X6X6X6X6X6X6X6X6X6X6X6X6X6X6X6X6X6X6X  f 5.u.u.y.y.y.y.t.7.H.|.:X<X4X5X:XK.Y [ O.o.] ^ ~ ) U :       ",
"6X6X6X6X6X6X6X6X6X6X6X6X6X6X6X6X6X6X6X6X6X6X6X6X6X6X6X6X6X6X6X6X  F 3.u.t.t.t.y.y.y.r.y.t.Q.:X4X4X*Xc.Y ] O.O./ e o = = 6X6X6X6X",
"6X6X6X6X6X6X6X6X6X6X6X6X6X6X6X6X6X6X6X6X6X6X6X6X6X6X6X6X6X6X6X6X  s 3.D.G.t.y.y.y.y.y.r.*.H.%X5X5X-XK.H U b T v =     6X6X6X6X6X",
"6X6X6X6X6X6X6X6X6X6X6X6X6X6X6X6X6X6X6X6X6X6X6X6X6X6X6X6X6X6X6X6X  F 3.u.u.y.y.y.y.y.y.r.6.T.%X4X4XXXc.D 2       6X6X6X6X6X6X6X6X",
"6X6X6X6X6X6X6X6X6X6X6X6X6X6X6X6X6X6X6X6X6X6X6X6X6X6X6X6X6X6X6Xp ' 3.w.G.t.t.u.t.y.y.y.t.r.F.R.~.~.P.|           6X6X6X6X6X6X6X6X",
"6X6X6X6X6X6X6X6X6X6X6X6X6X6X6X6X6X6X6X6X6X6X6X6X6X6X6X6X6X6X  F 0.D.u.t.t.t.t.t.y.y.y.t.t.r.7.6.;.<.L * t p p i 6X6X6X6X6X6X6X6X",
"6X6X6X6X6X6X6X6X6X6X6X6X6X6X6X6X6X6X6X6X6X6X6X6X6X6X6X6X6X6X  p 3.u.u.t.y.y.G.t.y.t.y.t.y.t.r.r.p.r.9.3.3.3.q.,.t       6X6X6X6X",
"6X6X6X6X6X6X6X6X6X6X6X6X6X6X6X6X6X6X6X6X6X6X6X6X6X6X6X6X6X6Xg @.0.u.t.u.t.y.t.t.r.r.r.r.r.r.r.r.r.p.u.D.u.D.D.w.@.K _ F 6X6X6X6X",
"6X6X6X6X6X6X6X6X6X6X6X6X6X6X6X6X6X6X6X6X6X6X6X6X6X6X6X6X  p 4.y.t.t.t.y.t.t.t.t.r.7.7.7.7.7.r.7.7.r.t.G.y.y.y.y.w.t.y.2.a       ",
"6X6X6X6X6X6X6X6X6X6X6X6X6X6X6X6X6X6X6X6X6X6X6X6X6X  6X4 W 2.t.i.u.t.y.t.r.6.=.F.Q. X X X}.}.}.}.|.}.C.&.w.D.u.u.D.D.D.w.1.' @.#.",
"6X6X6X6X6X6X6X6X6X6X6X6X6X6X6X6X6X6X6X6X6X6X6X6X* -   K 9.D.y.y.G.t.t.G.G.G.r.W.:X5X4X3X3X4X4X2X4X{.m > <.y.w.w.w.t.t.y.t.u.y.u.",
"6X6X6X6X6X6X6X6X6X6X6X6X6X6X6X6XO             9 #.3.1.3.t.u.y.t.6.=.*.F. X&X#X%X<X4X4X4X5X4X5X1X'.S 6X6XK _ ! W K #.w.D.D.D.i.D.",
"6X6X6X6X6X6X6X6X6X6X6X6X6X6X6X6X  * p F f s t _ e.i.u.u.t.r.r.G.H.I.H.Q.:X5X4X4X4X1X*XXX+X*X,X].M   6X6X          i ,.w.9.9.9.3.",
"6X6X6X6X6X6X6X6X6X6X6X6X6X6X6X6X  f 3.t.q.9.9.0.6.6.6.6.6.;.*.J.#X<X:X:X1X3X1X4X5X;Xv.l B C S N 6X6X6X6X6X6X6X6X6X6Xi d a p p a ",
"6X6X6X6X6X6X6X6X6X6X6X6X6X6X6X6X6Xs #.w.u.i.a.D.R.!.Q.Q.Q.Q.R. X<X5X4X3X3X3X4X1X*XV.l         6X6X6X6X6X6X6X6X6X6X6X6X          ",
"6X6X6X6X6X6X6X6X6X6X6X6X6X6X6X6X6X6X  K 9.u.:.T.%X3X1X1X1X<X1X1X3X3X1X1X1X3X4X=Xf.  6X6X6X6X6X6X6X6X6X6X6X6X6X6X6X6X6X6X6X6X6X6X",
"6X6X6X6X6X6X6X6X6X6X6X6X6X6X6X6X6X6X6X2 I C./.$X<X4X4X3X4X4X3X3X1X1X1X4X4X1X[.z.h 6X6X6X6X6X6X6X6X6X6X6X6X6X6X6X6X6X6X6X6X6X6X6X",
"6X6X6X6X6X6X6X6X6X6X6X6X6X6X6X6X6X6X6X6X  S =X5X4X1X3X3X1X1X1X3X1X1X1X1X4X[.N   6X6X6X6X6X6X6X6X6X6X6X6X6X6X6X6X6X6X6X6X6X6X6X6X",
"6X6X6X6X6X6X6X6X6X6X6X6X6X6X6X6XO         A +X4X3X1X1X1X2X1X1X1X1X4X4X*XB.V 6X6X6X6X6X6X6X6X6X6X6X6X6X6X6X6X6X6X6X6X6X6X6X6X6X6X",
"6X6X6X6X6X6X6X6X6X6X6X6X6X6X6X6X  1 f G 0 k.+X4X4X3X3X1X1X1X3X2X1X1X4X.XB   6X6X6X6X6X6X6X6X6X6X6X6X6X6X6X6X6X6X6X6X6X6X6X6X6X6X",
"6X6X6X6X6X6X6X6X6X6X6X6X6X6X6X6X  F 3.p.-.P.:X5X4X3X3X1X3X1X1X1X1X2X4X+X..  6X6X6X6X6X6X6X6X6X6X6X6X6X6X6X6X6X6X6X6X6X6X6X6X6X6X",
"6X6X6X6X6X6X6X6X6X6X6X6X6X6X6X6X6Xa ' 0.a.Y.~.|. X#X<X3X3X1X2X1X1X4X4X*Xf.  6X6X6X6X6X6X6X6X6X6X6X6X6X6X6X6X6X6X6X6X6X6X6X6X6X6X",
"6X6X6X6X6X6X6X6X6X6X6X6X6X6X6X6X6X6X  F 3.u.y.r.;.T.%X4X3X1X1X2X1X2X4X+Xs.  6X6X6X6X6X6X6X6X6X6X6X6X6X6X6X6X6X6X6X6X6X6X6X6X6X6X",
"6X6X6X6X6X6X6X6X6X6X6X6X6X6X6X6X6X6X6X- J C.}.%X#X$X<X4X4X4X4X4X4X-X_.z.M 6X6X6X6X6X6X6X6X6X6X6X6X6X6X6X6X6X6X6X6X6X6X6X6X6X6X6X",
"6X6X6X6X6X6X6X6X6X6X6X6X6X6X6X6X6X6X6X6X  Z [.3X>X>X1X1X>X*X*X>X4X+XC   6X6X6X6X6X6X6X6X6X6X6X6X6X6X6X6X6X6X6X6X6X6X6X6X6X6X6X6X",
"6X6X6X6X6X6X6X6X6X6X6X6X6X6X6X6X6X6X6X6X6X6XS x.A V.1X<Xn.N N n.>X*Xs.  6X6X6X6X6X6X6X6X6X6X6X6X6X6X6X6X6X6X6X6X6X6X6X6X6X6X6X6X",
"6X6X6X6X6X6X6X6X6X6X6X6X6X6X6X6X6X6X6X6X6X6X      M '.'.l     C -X>Xd.  6X6X6X6X6X6X6X6X6X6X6X6X6X6X6X6X6X6X6X6X6X6X6X6X6X6X6X6X",
"6X6X6X6X6X6X6X6X6X6X6X6X6X6X6X6X6X6X6X6X6X6X6X6X6X6Xz j ;     s.>X<Xx.  6X6X6X6X6X6X6X6X6X6X6X6X6X6X6X6X6X6X6X6X6X6X6X6X6X6X6X6X",
"6X6X6X6X6X6X6X6X6X6X6X6X6X6X6X6X6X6X6X6X6X6X6X6X6X6X6X        N B.B.C 6X6X6X6X6X6X6X6X6X6X6X6X6X6X6X6X6X6X6X6X6X6X6X6X6X6X6X6X6X",
"6X6X6X6X6X6X6X6X6X6X6X6X6X6X6X6X6X6X6X6X6X6X6X6X6X6X6X6X    X       6X6X6X6X6X6X6X6X6X6X6X6X6X6X6X6X6X6X6X6X6X6X6X6X6X6X6X6X6X6X",
"6X6X6X6X6X6X6X6X6X6X6X6X6X6X6X6X6X6X6X6X6X6X6X6X6X6X6X6X6X6X6X6X6X6X6X6X6X6X6X6X6X6X6X6X6X6X6X6X6X6X6X6X6X6X6X6X6X6X6X6X6X6X6X6X",
"6X6X6X6X6X6X6X6X6X6X6X6X6X6X6X6X6X6X6X6X6X6X6X6X6X6X6X6X6X6X6X6X6X6X6X6X6X6X6X6X6X6X6X6X6X6X6X6X6X6X6X6X6X6X6X6X6X6X6X6X6X6X6X6X"
};
