/* XPM */
static char *result[] = {
/* columns rows colors chars-per-pixel */
"64 64 204 2 ",
"   c #000000",
".  c #070803",
"X  c #1F0A01",
"o  c #221406",
"O  c #291905",
"+  c #321A08",
"@  c #300000",
"#  c #362406",
"$  c #392607",
"%  c #3C2907",
"&  c #3B2412",
"*  c #272517",
"=  c #3C3A26",
"-  c #393725",
";  c #500000",
":  c #6B0700",
">  c #583D0F",
",  c #553809",
"<  c #452B15",
"1  c #462B17",
"2  c #5A3A1E",
"3  c #52351B",
"4  c #4D2703",
"5  c #413F29",
"6  c #5D3C20",
"7  c #35533D",
"8  c #5E4211",
"9  c #624412",
"0  c #6E4D15",
"q  c #704F16",
"w  c #74401B",
"e  c #7A5619",
"r  c #765316",
"t  c #68460A",
"y  c #4A4B34",
"u  c #524F35",
"i  c #545137",
"p  c #5B593C",
"a  c #48462E",
"s  c #694426",
"d  c #784C28",
"f  c #7E552B",
"g  c #4C5844",
"h  c #6C6948",
"j  c #736C49",
"k  c #7A7651",
"l  c #7B7A56",
"z  c #78734F",
"x  c #8B0000",
"c  c #BD0000",
"v  c #CE0000",
"b  c #D22F1E",
"n  c #D3301E",
"m  c #DB311F",
"M  c #DD3220",
"N  c #E23320",
"B  c #ED3522",
"V  c #F73824",
"C  c #845D1C",
"Z  c #865D16",
"A  c #9A6200",
"S  c #8B631E",
"D  c #94691F",
"F  c #91661F",
"G  c #A3700F",
"H  c #82562F",
"J  c #815D21",
"K  c #825630",
"L  c #845832",
"P  c #8B5C34",
"I  c #8D5C3A",
"U  c #A15F2D",
"Y  c #936920",
"T  c #996D21",
"R  c #956D28",
"E  c #9E7024",
"W  c #95633B",
"Q  c #99653A",
"!  c #9D693C",
"~  c #966632",
"^  c #A37424",
"/  c #AC7B27",
"(  c #B27F29",
")  c #B17D24",
"_  c #A36D3E",
"`  c #A86E3E",
"'  c #AB743E",
"]  c #B47C3E",
"[  c #B75F41",
"{  c #877A53",
"}  c #9E6840",
"|  c #A57040",
" . c #AB7242",
".. c #AD7948",
"X. c #A46D40",
"o. c #DC6646",
"O. c #D67B55",
"+. c #E97B55",
"@. c #BA821E",
"#. c #B48129",
"$. c #BA852C",
"%. c #BE882C",
"&. c #BB813E",
"*. c #C68500",
"=. c #E19100",
"-. c #E49C14",
";. c #F4A81D",
":. c #F7AA18",
">. c #F2A200",
",. c #C48C2E",
"<. c #C58D2C",
"1. c #CB922F",
"2. c #C78C3D",
"3. c #CD9331",
"4. c #D29732",
"5. c #D69933",
"6. c #DB9D35",
"7. c #D6982C",
"8. c #DDA13B",
"9. c #EAA52B",
"0. c #F4AA23",
"q. c #F3AB2C",
"w. c #E2A337",
"e. c #E3A33B",
"r. c #EDAB3A",
"t. c #E9A837",
"y. c #F4AD33",
"u. c #F3AF3B",
"i. c #FAB234",
"p. c #F4B03C",
"a. c #FAB53D",
"s. c #FFB93F",
"d. c #86835C",
"f. c #89845B",
"g. c #9C8256",
"h. c #B28C4F",
"j. c #948E62",
"k. c #959165",
"l. c #9A9568",
"z. c #9D9A6C",
"x. c #989265",
"c. c #888D67",
"v. c #AE9F6D",
"b. c #AAA473",
"n. c #AEA976",
"m. c #A6A674",
"M. c #B0AD7A",
"N. c #B9B47E",
"B. c #E0895F",
"V. c #D1A14D",
"C. c #E5AC4C",
"Z. c #F4B243",
"A. c #FFBB41",
"S. c #F9B746",
"D. c #F6BD5B",
"F. c #F8BD57",
"G. c #EEB452",
"H. c #CBB47B",
"J. c #C8A56E",
"K. c #E2BE71",
"L. c #FDC55E",
"P. c #F6C264",
"I. c #F7C76D",
"U. c #F7C86E",
"Y. c #FAC667",
"T. c #F9CD75",
"R. c #F7CC74",
"E. c #FBD27C",
"W. c #FFD277",
"Q. c #EFC673",
"!. c #BCB883",
"~. c #C4BE85",
"^. c #C8C38A",
"/. c #D1CA8E",
"(. c #DCCC8E",
"). c #D4CD91",
"_. c #D9D294",
"`. c #E8C585",
"'. c #EAD28B",
"]. c #FAD481",
"[. c #FEDD8A",
"{. c #F6D98B",
"}. c #E1DA9A",
"|. c #E9DB98",
" X c #FBDF90",
".X c #F5DC9B",
"XX c #FCDD9C",
"oX c #E2CF90",
"OX c #FDE192",
"+X c #FCE599",
"@X c #FBE99F",
"#X c #EDE4A1",
"$X c #E8E4A4",
"%X c #F3EBA6",
"&X c #F3EDAA",
"*X c #FCEBA4",
"=X c #FFF1A6",
"-X c #FFF5AD",
";X c #FFF8AF",
":X c #F5F1AB",
">X c #FFFBB3",
",X c #FFFFBB",
"<X c #FFF7B0",
"1X c None",
/* pixels */
"1X1X1X1X1X1X1X1X1X1X1X1X1X1X1X1X1X1X1X1X1X1X1X1X1X1X1X1X1X1X1X1X1X1X1X1X1X1X1X1X1X1X1X1X1X1X1X1X1X1X1X1X1X1X1X1X1X1X1X1X1X1X1X1X",
"1X1X1X1X1X1X1X1X1X1X1X1X1X1X1X1X1X1X1X1X1X1X1X1X1X1X1X1X1X1X1X1X1X1X1X1X1X1X1X1X1X1X1X1X1X1X1X1X1X1X1X1X1X1X1X1X1X1X1X1X1X1X1X1X",
"1X1X1X1X1X1X1X1X1X1X1X1X1X1X1X1X1X1X1X1X1X1X1X1X1X1X1X1X1X1X1X1X1X1X1X1X1X1X1X1X1X1X1X1X1X1X1X1X1X1X1X1X1X1X1X1X1X1X1X1X1X1X1X1X",
"1X1X1X1X1X1X1X1X1X1X1X1X1X1X1X1X1X1X1X1X1X1X1X1X1X1X1X1X1X1X1X1X1X1X1X1X1X1X1X1X1X1X1X1X1X1X1X1X1X1X1X1X1X1X1X1X1X1X1X1X1X1X1X1X",
"1X1X1X1X1X1X1X1X1X1X1X1X1X1X1X1X1X1X1X1X1X1X1X1X1X1X1X1X1X1X1X1X1X1X1X1X1X1X1X1X1X1X1X1X1X1X1X1X1X1X1X1X1X1X1X1X1X1X1X1X1X1X1X1X",
"1X1X1X1X1X1X1X1X1X1X1X1X1X1X1X1X1X1X1X1X1X1X1X1X1X1X1X1X1X1X1X1X1X1X1X1X1X1X1X1X1X1X1X1X1X1X1X1X1X1X1X1X1X1X1X1X1X1X1X1X1X1X1X1X",
"1X1X1X1X1X1X1X1X1X1X1X1X1X1X1X1X1X1X1X1X1X1X1X1X1X1X1X1X1X1X1X1X1X1X1X1X1X1X1X1X1X1X1X1X1X1X1X1X1X1X1X1X1X1X1X1X1X1X1X1X1X1X1X1X",
"1X1X1X1X1X1X1X1X1X1X1X1X1X1X1X1X1X1X1X1X1X1X1X1X1X1X1X1X1X1X1X1X1X1X1X1X1X1X1X1X1X1X1X1X1X1X1X1X1X1X1X1X1X1X1X1X1X1X1X1X1X1X1X1X",
"1X1X1X1X1X1X1X1X1X1X1X1X1X1X1X1X1X1X1X1X1X1X1X1X1X1X1X1X1X1X1X1X1X1X1X1X1X1X1X1X1X1X1X1X1X1X1X1X1X1X1X1X1X1X1X1X1X1X1X1X1X1X1X1X",
"1X1X1X1X1X1X1X1X1X1X1X1X1X1X1X1X1X1X1X1X1X1X1X1X1X1X1X1X1X1X1X1X1X1X1X1X1X1X1X1X1X1X1X1X1X1X1X1X1X1X1X1X1X1X1X1X1X1X1X1X1X1X1X1X",
"1X1X1X1X1X1X1X1X1X1X1X1X1X1X1X1X1X1X1X1X1X1X1X1X1X1X1X1X1X1X1X1X1X1X1X1X1X1X1X1X1X1X1X1X1X1X1X1X1X1X1X1X1X1X1X1X1X1X1X1X1X1X1X1X",
"1X1X1X1X1X1X1X1X1X1X1X1X1X1X1X1X1X1X1X1X1X1X1X1X1X1X1X1X1X1X1X1X1X1X      1X1X1X.     1X1X1X1X1X1X1X1X1X1X1X1X1X1X1X1X1X1X1X1X1X",
"1X1X1X1X1X1X1X1X1X1X1X1X1X1X1X1X1X1X1X1X1X1X1X1X1X1X1X1X1X1X1X1X1X1Xo F S 1X1X1X  e T 9 1X1X1X1X1X1X1X1X1X1X1X1X1X1X1X1X1X1X1X1X",
"1X1X1X1X1X1X1X1X1X1X1X1X1X1X1X1X1X1X1X1X1X1X1X1X1X1X1X1X1X1X1X1X1X1X# 5.3.  1X1X  / w.e   1X1X1X1X1X1X1X1X1X1X1X1X1X1X1X1X1X1X1X",
"1X1X1X1X1X1X1X1X1X1X1X1X1X1X1X1X1X1X1X1X1X1X1X1X1X1X1X1X1X1X1X1X1X1X% w.a.T 9 1X  $.a.1.9 1X1X1X1X1X1X1X1X1X1X1X1X1X1X1X1X1X1X1X",
"1X1X1X1X1X1X1X1X1X1X1X1X1X1X1X1X1X1X1X1X1X1X1X1X1X1X1X1X1X1X1X1X1X1X$ 6.a.w.E     / a.u.%.$ 1X1X1X1X1X1X1X1X1X1X1X1X1X1X1X1X1X1X",
"1X1X1X1X1X1X1X1X1X1X1X1X1X1X1X1X1X1X1X1X1X1X1X1X1X1X1X1X1X1X1X1X1X1X$ 5.A.s.)     ^ a.A.6.+ 1X1X1X1X1X1X1X1X1X1X1X1X1X1X1X1X1X1X",
"1X1X1X1X1X1X1X1X1X1X1X1X1X1X1X1X1X1X1X1X1X1X1X1X1X1X1X1X1X1X1X1X1X1X$ 5.s.s.A     A 0.s.7.  1X1X1X1X1X1X1X1X1Xb b b b 1X1X1X1X1X",
"1X1X1X1X1X1X1X1X1X1X1X1X1X1X1X1X1X1X1X1X1X1X1X1X1X1X1X1X1X1X1X1X1X1X# 4.s.a.h.g g h.F.A.8.j 7 1X1X1X1X1X1X1Xb V N V b 1X1X1X1X1X",
"1X1X1X1X1X1X1X              1X1X1X1X1X1X1X1X1X1X1X1X1X1X1X1X1X1X1X1X  7.i.:.K.)./.|. XF.D.(.z.  1X1X1X1X1X1Xb B m N b 1X1X1X1X1X",
"1X1X1X1X1X1Xa p i i u u p i a 1X1X1X1X1X1X1X1X1X1X1X1X1X1X1X1X1X1X1X9 5.A.Z.OX,X>X,X;XL.Y.>X!.  1X1X1X1X1X1Xb N b M b 1X1X1X1X1X",
"1X1X1X1X1X  z._././././././.d.1X1X1X1X1X1X1X1X1X1X1X1X1X1X1X1X1X1XS 1.9.F.{.=X>X>X>X-XD.L.>X!.    1X1X1X1Xb b m N B m 1X1X1X1X1X",
"1X1X1X1X1X  /.,X>X;X;X;X>X>XN.  1X1X1X1X1X1X1X1X1X1X1X1X1X1X1X1X  ( a.;.I.-X>X-X-X>X:XP.Y.;XM.      1X1X1Xb M b b b b 1X1X1X1X1X",
"1X1X1X1Xp N.*X,X>X>X>X>X>X,X@Xb.* 1X1X1X1X1X1X1X1X1X1X1X1X1X1X1X  ( A.:.U.<X>X-X-X<X-X[.OX;XM.      1X1X1XN V n b 1X1X1X1X1X1X1X",
"1X1X1X  j.:X;X;X-X-X-X-X;X;X>X#Xh   1X1X1X1X1X1X1X1X1X1X1X1X1X1X  / a.;.I.-X>X-X<X-X-X-X>X>Xn.        1X1Xb B b 1X1X1X1X1X1X1X1X",
"1X1X1Xj.}.>X>X-X>X>X>X>X>X>X,X-X/.f.1X1X1X1X1X1X1X1X1X1X1X1X1XO T 5.p.0.I.=X<X-X-X-X-X>X>X<Xb.      . 1X1Xb n 1X1X1X1X1X1X1X1X1X",
"1X1X- _.>X-X-X;X;X>X;X>X>X>X;X-X>X~.  1X1X1X1X1X1X1X1X1X1X1X  > 6.a.u.;.I.-X>X-X-X;X-X-X>X>Xb.      . 1X1X1X1X1X1X1X1X1X1X1X1X1X",
"1X1X5 #X,X-X;X-X|.(.)./././.#X,X,X_.  1X1X1X1X1X1X1X1X1X1X1X0 ,.p.A.p.;.I.<X>X-X-X-X<X-X-X-X).z.n.d.  1X1X1X1X1X1X1X1X1X1X1X1X1X",
"1X1X= }.>X-X,X%XJ.W p p i i _.,X,X).  1X1X1X1X1X            #.p.u.u.u.;.I.<X>X<X<X-X-X-X<X<X:X&X>X~.  1X1X1X1X1X1X1Xn m b 1X1X1X",
"1X1X= }.,X;X=X'.| @         M.|.}.b.  1X1X1X1X1XC E D Y F S 8.A.a.u.u.q.D. X=X<X-X-X-X<X<X>X*X.X*XH.  1X1X1X1X1X1Xb B b b 1X1X1X",
"1X1X= }.>X;X[.C.f   1X1X1X1Xh k k y           < 4.r.w.w.w.w.r.p.u.u.u.u.Z.Z. X>X-X-X-X-X>X,X`.o.+.[   1X1X1X1X1Xn B M 1X1X1X1X1X",
"1X1X= }.,X;XW.=.,   1X1X1X1X      @ J C C C r ^ u.A.a.s.s.s.p.p.u.u.u.u.Z.F. X>X-X-X-X>X=X.XB.v c x . 1X1X1X1X1Xb b b 1X1X1X1X1X",
"1X1Xa #X,X;XW.=.4 1X1X1X          Z 6.8.6.6.6.8.p.Z.p.p.p.p.p.p.u.Z.p.q.D.+X=X<X-X-X-X>X.XO.v v :   . 1X1X1X1X1X1X1X1X1X1X1X1X1X",
"1X1X- ^.-X;X[.C.Y + 1X9 e q 0 0 , %.s.s.a.s.a.a.p.p.p.p.p.p.p.p.p.p.u.;.R.<X>X-X;X-X-X,X.Xo.o.O.k 7   1X1X1X1X1X1X1X1X1X1X1X1X1X",
"1X1X1Xj /.>X-X{.C.A   #.w.4.5.4.3.e.a.p.a.p.a.p.p.p.p.p.p.p.p.p.u.p.u.;.I.-X>X-X-X-X-X;X-XXXXX+X#XN.  1X1X1X1X1X1X1X1X1X1X1X1X1X",
"1X1X1X  k #X,X-XY.*.8 6.A.a.a.a.a.a.p.p.p.p.p.p.p.p.p.p.p.p.p.p.p.p.p.;.I.-X<X<X-X-X-X;X-X:X:X:X>X~.  1X1X1X1X1X1X1X1X1X1X1X1X1X",
"1X1X1X1Xi z.&X;XL.-.3.r.A.p.a.Z.a.p.p.p.p.p.p.p.p.p.p.p.p.p.p.p.u.p.u.>.P.-X<X-X-X-X-X,X&XN.m.M.!.j.1X1X1X1X1Xn b 1X1X1X1X1X1X1X",
"1X1X1X1X1X  ^.=XD.0.p.p.p.p.u.u.p.p.p.p.p.p.r.p.p.p.p.p.p.p.r.p.p.p.p.y.R.=X>X-X-X-X-X>X)..         1X1X1X1Xb N B n 1X1X1X1X1X1X",
"1X1X1X1X1X1Xc.H.G.i.a.p.p.p.p.p.u.p.p.p.p.p.p.p.u.p.p.p.p.p.p.p.p.y.Z.T.+X-X<X-X-X;X:X_.k.1X1X1X1X1X1X1X1X1X1Xb n b b 1X1X1X1X1X",
"1X1X1X1X1X1X  t w.a.p.p.u.p.p.p.p.p.p.p.p.p.u.p.p.p.p.p.p.p.p.p.Z.q.Z.+X>X-X-X-X-X,X=Xk.  1X1X1X1X1X1X1X1X1X1X1Xb B b 1X1X1X1X1X",
"1X1X1X1X1X1X  4 t.A.u.p.p.p.p.u.p.p.p.p.p.p.p.p.p.p.p.p.p.p.p.p.u.;.u.+X,X-X-X-X-X>X;Xj.  1X1X1X1X1X1X1X1X1X1X1Xb V N 1X1X1X1X1X",
"1X1X1X1X1X1X  q t.A.p.p.p.u.p.p.p.p.p.p.u.p.u.p.p.p.p.p.p.p.p.p.u.q.Z.+X>X-X-X-X-X,X-Xl.  1X1X1X1X1X1X1X1X1X1X1Xb V b 1X1X1X1X1X",
"1X1X1X1X1X1X1X9 #.w.p.p.p.p.p.p.p.p.p.u.u.p.y.y.q.q.q.q.y.u.p.u.y.D.E.*X>X-X-X-X>X%X~.l 1X1X1X1X1X1X1X1X1X1X1X1Xn b n 1X1X1X1X1X",
"1X1X1X1X1X1X1X1X  #.a.p.p.p.u.p.u.p.p.p.p.u.y.q.q.q.q.q.y.p.p.p.0.T.-X-X-X-X;X-X,X).= 1X1X1X1X1X1X1X1X1X1X1X1X1X1X1X1X1X1X1X1X1X",
"1X1X1X1X1X1X1X1X  ^ p.a.p.p.p.p.p.p.p.a.p.y.Y.E.W.T.R.T.Y.Z.y.y.0.].,X-X-X;X;X-X+Xv.  1X1X1X1X1X1X1X1X1X1X1X1X1X1X1X1X1X1X1X1X1X",
"1X1X1X1X1X1X1X1X  / a.p.p.p.p.p.p.a.a.i.y.i.[.;X-X-X*X=XOXZ.y.p.0.E.-X-X>X>X,X*XJ.f   1X1X1X1X1X1X1X1X1X1X1X1X1X1X1X1X1X1X1X1X1X",
"1X1X1X1X1X1X1X1X  / a.p.u.p.p.p.p.r.8.8.8.w.`.$X}.:X,X,X@XS.q.p.0.E.>X,X:X_.#X'...:   1X1X1X1X1X1X1X1X1X1X1X1X1X1X1X1X1X1X1X1X1X",
"1X1X1X1X1X1X1X1X  ^ a.p.p.p.p.p.s.8.] &.&.&.g.l h ^.,X,X=XS.q.u.0.].,X,X#X{ g.v...d   1X1X1X1X1X1X1X1X1X1X1X1X1X1X1X1X1X1X1X1X1X",
"1X1X1X1X1X1X1X1X8 ,.a.p.p.p.p.p.r.2.} } W I ;     l.#X%X'.C.9.y.q.Q.$X%X~.  ; U ` L   1X1X1X1X1X1X1X1X1X1X1X1X1X1X1X1X1X1X1X1X1X",
"1X1X1X1X1X1X1X9 <.r.p.p.p.p.a.u.2. .} X.I 6 X 1X1Xj k.l.{ J 1.a.a.V.f.k.k   w _  .K   1X1X1X1X1X1X1X1X1X1X1X1X1X1X1X1X1X1X1X1X1X",
"1X1X1X1X1X1X  q r.A.p.p.u.u.p.8.' W _  .P   1X1X1X1X        $.a.a.@.        K  .| H   1X1X1X1X1X1X1X1X1X1X1X1X1X1X1X1X1X1X1X1X1X",
"1X1X1X1X1X1X  , w.A.p.u.Z.A.8.&.X.! _  .W . 1X1X1X1X1X1X1X  $.A.a.<.  1X1X  K |  .H   1X1X1X1X1X1X1X1X1X1X1X1X1X1X1X1X1X1X1X1X1X",
"1X1X1X1X1X1X  C e.a.u.u.u.u.2.I ! ` _ ` L o 1X1X1X1X1X1X1X% 3.a.a.<.  1X1X  H  . .H   1X1X1X1X1X1X1X1X1X1X1X1X1X1X1X1X1X1X1X1X1X",
"1X1X1X1X1X  Y 5.u.a.A.A.t.^ ~ } _  .| P 2 1X1X1X1X1X1X1Xe %.w.a.s.4.  1X1X  H  .| H   1X1X1X1X1X1X1X1X1X1X1X1X1X1X1X1X1X1X1X1X1X",
"1X1X1X1X1X  1.a.u.u.u.a.3.o s  ._ | Q 2   1X1X1X1X1X1X  Y u.a.p.a.,.  1X1X  H  . .H   1X1X1X1X1X1X1X1X1X1X1X1X1X1X1X1X1X1X1X1X1X",
"1X1X1X1X> #.r.s.a.e.( ( E s I |  .Q d & 1X1X1X1X1X1X1X  T p.A.r.<.S 1X1X1X  f  . .P   1X1X1X1X1X1X1X1X1X1X1X1X1X1X1X1X1X1X1X1X1X",
"1X1X1X  S r.a.p.a.,.    2 ! X.`  .L   1X1X1X1X1X1X1X1X  Y r.A.w.0   1X1X1X. H  . .K   1X1X1X1X1X1X1X1X1X1X1X1X1X1X1X1X1X1X1X1X1X",
"1X1X1XS 5.a.A.p.5.Y     1 X. .! P 6   1X1X1X1X1X1X1X1X  S r.A.r.>   1X1X1 s W _ L s   1X1X1X1X1X1X1X1X1X1X1X1X1X1X1X1X1X1X1X1X1X",
"1X1X  3.a.p.a.r.C   1X  2 _  .Q 3   1X1X1X1X1X1X1X1X1X  C r.s.t.0   1X  2 Q ' Q 3   1X1X1X1X1X1X1X1X1X1X1X1X1X1X1X1X1X1X1X1X1X1X",
"1Xq / r.A.a.r.( O 1X1X2 H _  .! +   1X1X1X1X1X1X1X1X1XS <.p.r.$.8 1X1X  s '  .W +   1X1X1X1X1X1X1X1X1X1X1X1X1X1X1X1X1X1X1X1X1X1X",
"  ^ r.p.a.A.,.O 1X1Xo L _ _  .! 1 . 1X1X1X1X1X1X1X1X# 1.a.a.$.O 1X1X1X  2 _  .Q <   1X1X1X1X1X1X1X1X1X1X1X1X1X1X1X1X1X1X1X1X1X1X",
"  ( A.a.r.5.C   1X1XO W  .` Q f & 1X1X1X1X1X1X1X1X1X% w.A.a.^   1X1X1X  2 _  .Q <   1X1X1X1X1X1X1X1X1X1X1X1X1X1X1X1X1X1X1X1X1X1X",
"  ^ a.s.6.e # 1X1X1Xo I  .X.f & 1X1X1X1X1X1X1X1X1X1X$ 5.s.p./   1X1X1X  2 !  .Q <   1X1X1X1X1X1X1X1X1X1X1X1X1X1X1X1X1X1X1X1X1X1X",
"  / p.A.5.  1X1X1X1XO P  .X.s   1X1X1X1X1X1X1X1X1X1X$ 5.s.a.(   1X1X1X  6 _ ' Q <   1X1X1X1X1X1X1X1X1X1X1X1X1X1X1X1X1X1X1X1X1X1X"
};
