/* XPM */
static char *result[] = {
/* columns rows colors chars-per-pixel */
"64 64 209 2 ",
"   c #000000",
".  c #000009",
"X  c #090804",
"o  c #180802",
"O  c #1C1102",
"+  c #1F1D11",
"@  c #19001B",
"#  c #3B0000",
"$  c #281403",
"%  c #381D1B",
"&  c #2C1107",
"*  c #3C2907",
"=  c #35210F",
"-  c #3B2605",
";  c #222013",
":  c #382512",
">  c #4F0000",
",  c #5D1F00",
"<  c #422B03",
"1  c #432D09",
"2  c #482706",
"3  c #5B2000",
"4  c #4D340A",
"5  c #472C18",
"6  c #4D3219",
"7  c #5B3B1D",
"8  c #57381C",
"9  c #573C0F",
"0  c #703800",
"q  c #672D00",
"w  c #5D3927",
"e  c #613F21",
"r  c #314639",
"t  c #5F4311",
"y  c #6D4300",
"u  c #734E01",
"i  c #634513",
"p  c #6D4C15",
"a  c #704F15",
"s  c #735116",
"d  c #76521A",
"f  c #7E591A",
"g  c #7A5618",
"h  c #48462E",
"j  c #4E4B32",
"k  c #474B37",
"l  c #575439",
"z  c #504D34",
"x  c #6C4726",
"c  c #6E4924",
"v  c #734B29",
"b  c #7D522D",
"n  c #7D5035",
"m  c #5A6A52",
"M  c #666243",
"N  c #696545",
"B  c #6D6A48",
"V  c #736F4C",
"C  c #75714E",
"Z  c #676E52",
"A  c #6A7355",
"S  c #797956",
"D  c #854618",
"F  c #835C1A",
"G  c #8A5F10",
"H  c #94501E",
"J  c #835300",
"K  c #8A621D",
"L  c #8F6311",
"P  c #986D1F",
"I  c #966200",
"U  c #82542E",
"Y  c #9C5725",
"T  c #865932",
"R  c #8B5B34",
"E  c #835533",
"W  c #976B21",
"Q  c #9B6D27",
"!  c #9F7122",
"~  c #916036",
"^  c #956339",
"/  c #99663B",
"(  c #9D693B",
")  c #9A6637",
"_  c #A37423",
"`  c #AA7A23",
"'  c #B17F29",
"]  c #A26C3D",
"[  c #A96E3D",
"{  c #A87438",
"}  c #B87F3E",
"|  c #8E6F42",
" . c #827F58",
".. c #837F57",
"X. c #A36C41",
"o. c #A77040",
"O. c #AB7241",
"+. c #B17745",
"@. c #B58229",
"#. c #BA842B",
"$. c #BD8438",
"%. c #D38C00",
"&. c #D1900F",
"*. c #F2A200",
"=. c #F3A60C",
"-. c #EAA114",
";. c #F3A81E",
":. c #F3A718",
">. c #C78E2D",
",. c #CA912F",
"<. c #D8992E",
"1. c #CE9431",
"2. c #D59933",
"3. c #DC9E34",
"4. c #D29735",
"5. c #DFA036",
"6. c #F4A922",
"7. c #F3AB2D",
"8. c #FAAE27",
"9. c #E2A236",
"0. c #E5A539",
"q. c #E8A739",
"w. c #EDAB3A",
"e. c #EBA836",
"r. c #F4AE34",
"t. c #F2AF3B",
"y. c #F4B03C",
"u. c #FBB53D",
"i. c #FFB93E",
"p. c #F9B134",
"a. c #FEB22C",
"s. c #858059",
"d. c #8F895F",
"f. c #8C865D",
"g. c #9C8A58",
"h. c #BD8340",
"j. c #A58657",
"k. c #A7915A",
"l. c #928C61",
"z. c #979367",
"x. c #8E8B62",
"c. c #BC9965",
"v. c #A6A06F",
"b. c #A7A170",
"n. c #A9A472",
"m. c #AFAC7A",
"M. c #B4AD79",
"N. c #B0AA77",
"B. c #BBB47E",
"V. c #B7B07B",
"C. c #CA9D4D",
"Z. c #D19243",
"A. c #D5A44F",
"S. c #E4A846",
"D. c #FFBA41",
"F. c #F5B64C",
"G. c #F6B443",
"H. c #F6BD5B",
"J. c #F5BA55",
"K. c #C19D67",
"L. c #C9AC70",
"P. c #E7BB69",
"I. c #F3BF62",
"U. c #FFC143",
"Y. c #FFC45B",
"T. c #F6C263",
"R. c #F7C86F",
"E. c #FDCA6A",
"W. c #FAC667",
"Q. c #F8CD76",
"!. c #F8CF7A",
"~. c #FDD47D",
"^. c #F4D07F",
"/. c #EEC978",
"(. c #BEB781",
"). c #C3BC84",
"_. c #CBC48A",
"`. c #CCC68B",
"'. c #D0CA8E",
"]. c #D1C589",
"[. c #DBD395",
"{. c #DBD799",
"}. c #F9D684",
"|. c #FADA8A",
" X c #FAD886",
".X c #E6DE9D",
"XX c #EBDF9D",
"oX c #E6CD88",
"OX c #FFE28F",
"+X c #E7E09F",
"@X c #EAE19E",
"#X c #FCE192",
"$X c #FDE699",
"%X c #FDE89C",
"&X c #F5E49A",
"*X c #EDE5A2",
"=X c #E9E4A2",
"-X c #F2E5A2",
";X c #F3EBA6",
":X c #FDEDA3",
">X c #F5EEA9",
",X c #F8EFA9",
"<X c #FFF2A6",
"1X c #FFF5AD",
"2X c #FFF8AF",
"3X c #FEF7B0",
"4X c #FFFCB3",
"5X c #FFFFB9",
"6X c None",
/* pixels */
"6X6X6X6X6X6X6X6X6X6X6X6X6X6X6X6X6X6X6X6X6X6X6X6X6X6X6X6X6X6X6X6X6X6X6X6X6X6X6X6X6X6X6X6X6X6X6X6X6X6X6X6X6X6X6X6X6X6X6X6X6X6X6X6X",
"6X6X6X6X6X6X6X6X6X6X6X6X6X6X6X6X6X6X6X6X6X6X6X6X6X6X6X6X6X6X6X6X6X6X6X6X6X6X6X6X6X6X6X6X6X6X6X6X6X6X6X6X6X6X6X6X6X6X6X6X6X6X6X6X",
"6X6X6X6X6X6X6X6X6X6X6X6X6X6X6X6X6X6X6X6X6X6X6X6X6X6X6X6X6X6X6X6X6X6X6X6X6X6X6X6X6X6X6X6X6X6X6X6X6X6X6X6X6X6X6X6X6X6X6X6X6X6X6X6X",
"6X6X6X6X6X6X6X6X6X6X6X6X6X6X6X6X6X6X6X6X6X6X6X6X6X6X6X6X6X6X6X6X6X6X6X6X6X6X6X6X6X6X6X6X6X6X6X6X6X6X6X6X6X6X6X6X6X6X6X6X6X6X6X6X",
"6X6X6X6X6X6X6X6X6X6X6X6X6X6X6X6X6X6X6X6X6X6X6X6X6X6X6X6X6X6X6X6X6X6X6X6X6X6X6X6X6X6X6X6X6X6X6X6X6X6X6X6X6X6X6X6X6X6X6X6X6X6X6X6X",
"6X6X6X6X6X6X6X6X6X6X6X6X6X6X6X6X6X6X6X6X6X6X6X6X6X6X6X6X6X6X6X6X6X6X6X6X6X6X6X6X6X6X6X6X6X6X6X6X6X6X6X6X6X6X6X6X6X6X6X6X6X6X6X6X",
"6X6X6X6X6X6X6X6X6X6X6X6X6X6X6X6X6X6X6X6X6X6X6X6X6X6X6X6X6X6X6X6X6X6X6X6X6X6X6X6X6X6X6X6X6X6X6X6X6X6X6X6X6X6X6X6X6X6X6X6X6X6X6X6X",
"6X6X6X6X6X6X6X6X6X6X6X6X6X6X6X6X6X6X6X6X6X6X6X6X6X6X6X6X6X6X6X6X6X6X6X6X6X6X6X6X6X6X6X6X6X6X6X6X6X6X6X6X6X6X6X6X6X6X6X6X6X6X6X6X",
"6X6X6X6X6X6X6X6X6X6X6X6X6X6X6X6X6X6X6X6X6X6X6X6X6X6X6X6X6X6X6X6X6X6X6X6X6X6X6X6X6X6X6X6X6X6X6X6X6X6X6X6X6X6X6X6X6X6X6X6X6X6X6X6X",
"6X6X6X6X6X6X6X6X6X6X6X6X6X6X6X6X6X6X6X6X6X6X6X6X6X6X6X6X6X6X6X6X6X6X6X6X6X6X6X6X6X6X6X6X6X6X6X6X6X6X6X6X6X6X6X6X6X6X6X6X6X6X6X6X",
"6X6X6X6X6X6X6X6X6X6X6X6X6X6X6X6X6X6X6X6X6X6X6X6X6X6X6X6X6X6X6X6X6X6X6X6X6X6X6X6X6X6X6X6X6X6X6X6X6X6X6X6X6X6X6X6X6X6X6X6X6X6X6X6X",
"6X6X6X6X6X6X6X6X6X6X6X6X6X6X6X6X6X6X6X6X6X6X6X6X6X6X6X6X6X6X6X6X6X6X6X6X6X6X6X6X6X6X6X6X6X6X6X6X6X6X6X6X6X6X6X6X6X6X6X6X6X6X6X6X",
"6X6X6X6X6X6X6X6X6X6X6X6X6X6X6X6X6X6X6X6X6X6X6X6X6X6X6X6X6X6X6X6X6X6X6X6X6X6X6X6X6X6X6X6X6X6X6X6X6X6X6X6X6X6X6X6X6X6X6X6X6X6X6X6X",
"6X6X6X6X6X6X6X6X6X6X6X6X6X6X6X6X6X6X6X6X6X6X6X6X6X6X6X6X6X6X6X6X6X6X6X6X6X6X6X6X6X6X6X6X6X6X6X6X6X6X6X6X6X6X6X6X6X6X6X6X6X6X6X6X",
"6X6X6X6X6X6X6X6X6X6X6X6X6X6X6X6X6X6X6X6X6X6X6X6X6X6X6X6X6X6X6X6X6X6X6X6X6X6X6X6X6X6X6X6X6X6X6X6X6X6X6X6X6X6X6X6X6X6X6X6X6X6X6X6X",
"6X6X6X6X6X6X6X6X6X6X6X6X6X6X6X6X6X6X6X6X6X6X6X6X6X6X6X6X6X6X6X6X6X6X6X6X6X6X6X6X6X6X6X6X6X6X6X6X6X6X6X6X6X6X6X6X6X6X6X6X6X6X6X6X",
"6X6X6X6X6X6X6X6X6X6X6X    O 6X6X6X6X    O 6X6X6X6X6X6X6X6X6X6X6X6X6X6X6X6X6X6X6X6X6X6X6X6X6X6X6X6X6X6X6X6X6X6X6X6X6X6X6X6X6X6X6X",
"6X6X6X6X6X6X6X6X6X6Xa F 1   6X6X6Xs F *   6X6X6X6X6X6X6X6X6X6X6X6X6X6X6X6X6X6X6X6X6X6X6X6X6X6X6X6X6X6X6X6X6X6X6X6X6X6X6X6X6X6X6X",
"6X6X6X6X6X6X6X6X6X  @.3.F   6X6X  #.3.p   6X6X6X6X6X6X6X6X6X6X6X6X6X6X6X6X6X6X6X6X6X6X6X                6X6X6X6X6X6X6X6X6X6X6X6X",
"6X6X6X6X6X6X6X6X- f 9.r.G   6X2 K w.t.f   6X6X6X6X6X6X6X6X6X6X6X6X6X6X6X6X6X6X6X6X6X6XC d.s.s.s.s.s.l.C 6X6X6X6X6X6X6X6X6X6X6X6X",
"6X6X6X6X6X6X6X  u 9.p.-.0     I 9.u.q.g   6X6X6X6X6X6X6X6X6X6X6X6X6X6X6X6X6X6X6X6X6X  (.;X+X.X+X=X.X;X_.+ 6X6X6X6X6X6X6X6X6X6X6X",
"6X6X6X6X6X6X6XZ A.u.Y.I.k.A S C.u.i.9.s   6X6X6X6X6X6X6X6X6X6X6X6X6X6X6X6X6X6X6X6Xj z.*X5X4X4X4X4X4X5X;Xv.z 6X6X6X6X6X6X6X6X6X6X",
"6X6X6X6X6X  S [.}.y.~.:X=X.X+X/.:.a.5.t   6X6X6X6X6X6X6X6X6X6X6X6X6X6X6X6X6X6X6X  n.*X1X4X2X2X2X4X4X2X1X;XM.  6X6X6X6X6X6X6X6X6X",
"6X6X6X6X6X  x.3X$Xt.|.5X4X5X4X$XT.D.e._ 9 6X6X6X6X6X6X6X6X6X6X6X6X6X6X6X6X6X6X6X  _.5X4X2X2X2X2X2X1X1X4X5X[.  6X6X6X6X6X6X6X6X6X",
"6X6X6X6X6X  C >X#X;. X4X4X1X4X1X%XW.7.9.#.* 6X6X6X6X6X6X6X6X6X6X6X6X6X6X6X6X6X6X  ).4X2X2X4X4X4X4X4X2X1X4X_.  6X6X6X6X6X6X6X6X6X",
"6X6X6X6X6XM V.>X%XT.#X4X3X3X1X4X4X!.;.i.3.-   6X6X6X6X6X6X6X6X6X6X6X6X6X6X6X6X6X  ).4X4X1X@X.X+X@X*X<X4X4X[.S l 6X6X6X6X6X6X6X6X",
"6X6X6X6Xj '.1X1X1X%X,X1X1X1X1X4X1XQ.8.i.1.  6X6X6X6X6X6X6X6X6X6X6X6X6X6X6X6X6X6X  _.5X5X,Xn.B s.j.L.;X4X2X<X.Xz.  6X6X6X6X6X6X6X",
"6X6X6X  h '.1X1X1X4X4X1X1X3X1X3X1XQ.6.p.2.K 4 6X6X6X6X6X6X6X6X6X6X6X6X6X6X6X6X6X. n.+X;X'.h     # ) oX1X1X4X4XB.  6X6X6X6X6X6X6X",
"6X6X    ; l N.;X4X1X3X1X1X2X1X4X1XQ.6.t.t.9.W   6X6X6X6X6X6X6X6X6X6X6X6X6X6X      r A S Z 6X6X6X  c A.~.1X4X2XM.  6X6X6X6X6X6X6X",
"6X6X        N *X4X1X1X1X1X1X1X3X1XQ.:.r.u.i.2.p 6X6X6X6X6X6X6X6X6X6X6X6X6X6Xa K f y , q 3 6X6X6X  < %.Y.<X4X1XN.  6X6X6X6X6X6X6X",
"6X6XX       N *X4X2X1X2X3X2X1X4X1XR.*.r.y.y.y.2.d     6X6X6X6X6X6X6X6X    * >.q.3.2.<.9.>.<       4 %.E.:X4X1XN.  6X6X6X6X6X6X6X",
"6X6X  M f.V n.>X4X2X1X1X1X1X1X4X1X}.J.G.t.t.i.y.#.p F p 6X6X6X6X6X6Xi F p ! w.D.i.i.u.D.w._ p F $ < %.E.,X5X1XM.  6X6X6X6X6X6X6X",
"6X6X  (.;X;X;X4X4X1X1X2X1X1X1X1X1X1X#XH.7.y.y.y.0.3.0.'             W 3.9.9.t.u.G.t.y.u.t.9.5.9.f   %.W.:X5X4XB.  6X6X6X6X6X6X6X",
"6X6X  B.<X;X;X.X;X1X4X2X2X4X1X1X1X4X<XT.=.y.y.t.u.D.D.3.F s f F g p >.D.D.G.y.t.y.t.y.t.y.G.D.D.#.F %.E.1X4X.Xz.  6X6X6X6X6X6X6X",
"6X6X6XC x.d.s.V _.4X5X4X4X4X1X1X1X4X%XJ.*.t.t.y.t.y.u.w.5.3.3.5.5.3.q.y.u.y.t.y.y.y.y.t.y.y.u.y.9.5.-.E.4X=X..z 6X6X6X6X6X6X6X6X",
"6X6X6X6X        l..X*X+X.X*X1X4X1X4X,X!.F.G.t.t.y.y.t.t.i.D.u.u.i.i.u.t.t.y.t.y.y.y.y.y.t.y.t.y.u.G.a.T.&XM.  6X6X6X6X6X6X6X6X6X",
"6X6X6X6X6X6X6X6XN s.f...B B.1X4X1X1X1X,X XG.r.t.y.y.y.y.u.t.G.u.y.G.y.y.y.y.y.y.y.t.y.y.y.y.y.y.y.y.p.S.g.m 6X6X6X6X6X6X6X6X6X6X",
"6X6X6X6X6X6X6X6X6X        C [.1X3X3X1X5X#XG.6.t.y.t.y.y.y.y.t.t.t.y.y.t.t.y.t.y.y.y.y.y.y.y.t.y.y.y.i.<.o   6X6X6X6X6X6X6X6X6X6X",
"6X6X6X6X6X6X6X6X6X6X6X6X6X6XN [.4X4X1X4X$Xr.=.y.y.y.y.y.y.y.y.y.y.y.y.y.t.y.y.y.y.y.y.y.y.y.y.y.y.y.i.2.o X 6X6X6X6X6X6X6X6X6X6X",
"6X6X6X6X6X6X6X6X6X6X6X6X6X6X  z.=X1X4X4X%XW.F.t.t.t.y.y.y.t.y.y.y.t.y.y.y.y.y.y.y.t.y.y.y.t.t.y.y.y.u.9.P 4 6X6X6X6X6X6X6X6X6X6X",
"6X6X6X6X6X6X6X6X6X6X6X6X6X6X6Xh d.*X5X2X1X:XQ.r.r.t.t.y.y.t.t.t.y.y.y.y.t.y.t.t.t.y.y.y.y.t.y.y.t.t.t.t.q.`   6X6X6X6X6X6X6X6X6X",
"6X6X6X6X6X6X6X6X6X6X6X6X6X6X6X6X  V.;X1X4X4X X7.r.u.t.y.y.y.t.r.t.r.t.r.t.u.G.u.t.t.t.y.y.y.y.y.t.G.t.u.D.5.f 1 6X6X6X6X6X6X6X6X",
"6X6X6X6X6X6X6X6X6X6X6X6X6X6X6X6X6Xl b.*X4X4X}.7.r.t.y.y.y.y.t.7.;.;.;.;.p.D.D.G.u.t.y.y.y.y.y.t.y.y.y.y.y.t.3.F   6X6X6X6X6X6X6X",
"6X6X6X6X6X6X6X6X6X6X6X6X6X6X6X6X6X  l .X5X3X X7.r.y.t.t.t.r.u.H.W.T.W.W.S.3.3.3.0.t.y.u.y.y.y.y.y.y.t.t.t.D.G.1.i 6X6X6X6X6X6X6X",
"6X6X6X6X6X6X6X6X6X6X6X6X6X6X6X6X6X  B @X4X3X X7.r.y.t.r.6.*.G.|.:X%X<X,XL.0 u Q +.S.D.D.u.t.t.t.y.y.y.y.y.y.y.t.1.s   6X6X6X6X6X",
"6X6X6X6X6X6X6X6X6X6X6X6X6X6X6X6X6X  V =X5X4X X7.r.t.p.F.I.H.R.:X5X4X4X=Xz.    @ n $.9.0.S.t.u.y.y.y.y.y.y.t.y.D.t.K   6X6X6X6X6X",
"6X6X6X6X6X6X6X6X6X6X6X6X6X6X6X6X6X  S :X5X4X}.7.r.r.7.R.%X:X:X<X4X5X.X .k 6X6X6X5 i F [ Z.t.i.u.u.u.u.u.u.u.t.i.q.F   6X6X6X6X6X",
"6X6X6X6X6X6X6X6X6X6X6X6X6X6X6X6X6X6XN `.1X3X X7.r.t.6.!.4X4X4X4X1X*Xn.  6X6X6X6X      w [ 4.9.q.0.0.S.9.3.q.t.u.q.F   6X6X6X6X6X",
"6X6X6X6X6X6X6X6X6X6X6X6X6X6X6X6X6X6X6Xl '.4XOX7.7.p.8.~.4X5X4X5X;Xz.z 6X6X6X6X6X6X6X6X% e a Q h.h.} +.{ d @.y.i.q.F   6X6X6X6X6X",
"6X6X6X6X6X6X6X6X6X6X6X6X6X6X6X6X6X6X6X   .{.^.r.r.w.<.P.XX&X@X:X].o   6X6X6X6X6X6X6X6X    . % T ^ X.] E   P y.i.9.F   6X6X6X6X6X",
"6X6X6X6X6X6X6X6X6X6X6X6X6X6X6X6X6X6X6X6X6Xm C.p.U.5.L / K.K.c.K.j.:   6X6X6X6X6X6X6X6X6X6X6X6X5 R X.o.R . ! t.D.q.F   6X6X6X6X6X",
"6X6X6X6X6X6X6X6X6X6X6X6X6X6X6X6X6X6X6X6X6X> >.u.i.5.*   D H Y Y D $   6X6X6X6X6X6X6X6X6X6X6X6X  b o.O.R . _ y.D.q.F   6X6X6X6X6X",
"6X6X6X6X6X6X6X6X6X6X6X6X6X6X6X6X6X6X6X  K 1.w.y.i.5.t   1 U ] [ R X   6X6X6X6X6X6X6X6X6X6X6X6X  b o.O.R . _ y.D.q.F   6X6X6X6X6X",
"6X6X6X6X6X6X6X6X6X6X6X6X6X6X6X6X6X6X6X  _ u.i.y.u.5.p     b O.O.) x = 6X6X6X6X6X6X6X6X6X6X6X6X  E o.O.R . _ y.D.q.F   6X6X6X6X6X",
"6X6X6X6X6X6X6X6X6X6X6X6X6X6X6X6X6X6X6X  P t.u.y.i.q.p     T O.o.] ( v   6X6X6X6X6X6X6X6X6X6X6X  T O.+.~ . ` i.U.w.K   6X6X6X6X6X",
"6X6X6X6X6X6X6X6X6X6X6X6X6X6X6X6X6X6X6X  P t.i.y.w.>.t     v ( ] o.O.T   6X6X6X6X6X6X6X6X6X6X6X  v ) ( E . P 5.w.4.s   6X6X6X6X6X",
"6X6X6X6X6X6X6X6X6X6X6X6X6X6X6X6X6X6X6X  K w.i.w.@.t 6X6X6X= e ^ O.O.b   6X6X6X6X6X6X6X6X6X6X6X6X5 8 7 5 6Xp F K s 6X6X6X6X6X6X6X",
"6X6X6X6X6X6X6X6X6X6X6X6X6X6X6X6X6X6X6Xi #.t.D.w.K   6X6X6X  o ~ O.X.R 6 = 6X6X6X6X6X6X6X6X6X6X6X6X      6X6X      6X6X6X6X6X6X6X",
"6X6X6X6X6X6X6X6X6X6X6X6X6X6X6X6X6X6Xi >.w.y.D.y.!   6X6X6X  = ) +.] ] ~ w   6X6X6X6X6X6X6X6X6X6X6X6X6X6X6X6X6X6X6X6X6X6X6X6X6X6X",
"6X6X6X6X6X6X6X6X6X6X6X6X6X6X6X6X6X  d w.D.y.w.2.K   6X6X6X6X= U ( ] O.o.v   6X6X6X6X6X6X6X6X6X6X6X6X6X6X6X6X6X6X6X6X6X6X6X6X6X6X",
"6X6X6X6X6X6X6X6X6X6X6X6X6X6X6X6X6X  a 9.D.y.1.p 6X6X6X6X6X6X6X: v ( O.] v   6X6X6X6X6X6X6X6X6X6X6X6X6X6X6X6X6X6X6X6X6X6X6X6X6X6X",
"6X6X6X6X6X6X6X6X6X6X6X6X6X6X6X6X6X  p 9.D.y.'   6X6X6X6X6X6X6X  6 ( O.] c   6X6X6X6X6X6X6X6X6X6X6X6X6X6X6X6X6X6X6X6X6X6X6X6X6X6X",
"6X6X6X6X6X6X6X6X6X6X6X6X6X6X6X6X6X  p 9.D.u.@.  6X6X6X6X6X6X6X  8 ( O.] x   6X6X6X6X6X6X6X6X6X6X6X6X6X6X6X6X6X6X6X6X6X6X6X6X6X6X",
"6X6X6X6X6X6X6X6X6X6X6X6X6X6X6X6X6X  p 9.i.y.#.  6X6X6X6X6X6X6X  w ( O.] x   6X6X6X6X6X6X6X6X6X6X6X6X6X6X6X6X6X6X6X6X6X6X6X6X6X6X"
};
