/* XPM */
static char *result[] = {
/* columns rows colors chars-per-pixel */
"64 64 209 2 ",
"   c #000000",
".  c #000009",
"X  c #090804",
"o  c #180802",
"O  c #1C1102",
"+  c #1F1D11",
"@  c #19001B",
"#  c #3B0000",
"$  c #281403",
"%  c #381D1B",
"&  c #2C1107",
"*  c #3C2907",
"=  c #35210F",
"-  c #3B2605",
";  c #222013",
":  c #382512",
">  c #4F0000",
",  c #5D1F00",
"<  c #422B03",
"1  c #432D09",
"2  c #482706",
"3  c #5B2000",
"4  c #4D340A",
"5  c #472C18",
"6  c #4D3219",
"7  c #5B3B1D",
"8  c #57381C",
"9  c #573C0F",
"0  c #703800",
"q  c #672D00",
"w  c #5D3927",
"e  c #613F21",
"r  c #314639",
"t  c #5F4311",
"y  c #6D4300",
"u  c #734E01",
"i  c #634513",
"p  c #6D4C15",
"a  c #704F15",
"s  c #735116",
"d  c #76521A",
"f  c #7E591A",
"g  c #7A5618",
"h  c #48462E",
"j  c #4E4B32",
"k  c #474B37",
"l  c #575439",
"z  c #504D34",
"x  c #6C4726",
"c  c #6E4924",
"v  c #734B29",
"b  c #7D522D",
"n  c #7D5035",
"m  c #5A6A52",
"M  c #666243",
"N  c #696545",
"B  c #6D6A48",
"V  c #736F4C",
"C  c #75714E",
"Z  c #676E52",
"A  c #6A7355",
"S  c #797956",
"D  c #854618",
"F  c #835C1A",
"G  c #8A5F10",
"H  c #94501E",
"J  c #835300",
"K  c #8A621D",
"L  c #8F6311",
"P  c #986D1F",
"I  c #966200",
"U  c #82542E",
"Y  c #9C5725",
"T  c #865932",
"R  c #8B5B34",
"E  c #835533",
"W  c #976B21",
"Q  c #9B6D27",
"!  c #9F7122",
"~  c #916036",
"^  c #956339",
"/  c #99663B",
"(  c #9D693B",
")  c #9A6637",
"_  c #A37423",
"`  c #AA7A23",
"'  c #B17F29",
"]  c #A26C3D",
"[  c #A96E3D",
"{  c #A87438",
"}  c #B87F3E",
"|  c #8E6F42",
" . c #827F58",
".. c #837F57",
"X. c #A36C41",
"o. c #A77040",
"O. c #AB7241",
"+. c #B17745",
"@. c #B58229",
"#. c #BA842B",
"$. c #BD8438",
"%. c #D38C00",
"&. c #D1900F",
"*. c #F2A200",
"=. c #F3A60C",
"-. c #EAA114",
";. c #F3A81E",
":. c #F3A718",
">. c #C78E2D",
",. c #CA912F",
"<. c #D8992E",
"1. c #CE9431",
"2. c #D59933",
"3. c #DC9E34",
"4. c #D29735",
"5. c #DFA036",
"6. c #F4A922",
"7. c #F3AB2D",
"8. c #FAAE27",
"9. c #E2A236",
"0. c #E5A539",
"q. c #E8A739",
"w. c #EDAB3A",
"e. c #EBA836",
"r. c #F4AE34",
"t. c #F2AF3B",
"y. c #F4B03C",
"u. c #FBB53D",
"i. c #FFB93E",
"p. c #F9B134",
"a. c #FEB22C",
"s. c #858059",
"d. c #8F895F",
"f. c #8C865D",
"g. c #9C8A58",
"h. c #BD8340",
"j. c #A58657",
"k. c #A7915A",
"l. c #928C61",
"z. c #979367",
"x. c #8E8B62",
"c. c #BC9965",
"v. c #A6A06F",
"b. c #A7A170",
"n. c #A9A472",
"m. c #AFAC7A",
"M. c #B4AD79",
"N. c #B0AA77",
"B. c #BBB47E",
"V. c #B7B07B",
"C. c #CA9D4D",
"Z. c #D19243",
"A. c #D5A44F",
"S. c #E4A846",
"D. c #FFBA41",
"F. c #F5B64C",
"G. c #F6B443",
"H. c #F6BD5B",
"J. c #F5BA55",
"K. c #C19D67",
"L. c #C9AC70",
"P. c #E7BB69",
"I. c #F3BF62",
"U. c #FFC143",
"Y. c #FFC45B",
"T. c #F6C263",
"R. c #F7C86F",
"E. c #FDCA6A",
"W. c #FAC667",
"Q. c #F8CD76",
"!. c #F8CF7A",
"~. c #FDD47D",
"^. c #F4D07F",
"/. c #EEC978",
"(. c #BEB781",
"). c #C3BC84",
"_. c #CBC48A",
"`. c #CCC68B",
"'. c #D0CA8E",
"]. c #D1C589",
"[. c #DBD395",
"{. c #DBD799",
"}. c #F9D684",
"|. c #FADA8A",
" X c #FAD886",
".X c #E6DE9D",
"XX c #EBDF9D",
"oX c #E6CD88",
"OX c #FFE28F",
"+X c #E7E09F",
"@X c #EAE19E",
"#X c #FCE192",
"$X c #FDE699",
"%X c #FDE89C",
"&X c #F5E49A",
"*X c #EDE5A2",
"=X c #E9E4A2",
"-X c #F2E5A2",
";X c #F3EBA6",
":X c #FDEDA3",
">X c #F5EEA9",
",X c #F8EFA9",
"<X c #FFF2A6",
"1X c #FFF5AD",
"2X c #FFF8AF",
"3X c #FEF7B0",
"4X c #FFFCB3",
"5X c #FFFFB9",
"6X c None",
/* pixels */
"6X6X6X6X6X6X6X6X6X6X6X6X6X6X6X6X6X6X6X6X6X6X6X6X6X6X6X6X6X6X6X6X6X6X6X6X6X6X6X6X6X6X6X6X6X6X6X6X6X6X6X6X6X6X6X6X6X6X6X6X6X6X6X6X",
"6X6X6X6X6X6X6X6X6X6X6X6X6X6X6X6X6X6X6X6X6X6X6X6X6X6X6X6X6X6X6X6X6X6X6X6X6X6X6X6X6X6X6X6X6X6X6X6X6X6X6X6X6X6X6X6X6X6X6X6X6X6X6X6X",
"6X6X6X6X6X6X6X6X6X6X6X6X6X6X6X6X6X6X6X6X6X6X6X6X6X6X6X6X6X6X6X6X6X6X6X6X6X6X6X6X6X6X6X6X6X6X6X6X6X6X6X6X6X6X6X6X6X6X6X6X6X6X6X6X",
"6X6X6X6X6X6X6X6X6X6X6X6X6X6X6X6X6X6X6X6X6X6X6X6X6X6X6X6X6X6X6X6X6X6X6X6X6X6X6X6X6X6X6X6X6X6X6X6X6X6X6X6X6X6X6X6X6X6X6X6X6X6X6X6X",
"6X6X6X6X6X6X6X6X6X6X6X6X6X6X6X6X6X6X6X6X6X6X6X6X6X6X6X6X6X6X6X6X6X6X6X6X6X6X6X6X6X6X6X6X6X6X6X6X6X6X6X6X6X6X6X6X6X6X6X6X6X6X6X6X",
"6X6X6X6X6X6X6X6X6X6X6X6X6X6X6X6X6X6X6X6X6X6X6X6X6X6X6X6X6X6X6X6X6X6X6X6X6X6X6X6X6X6X6X6X6X6X6X6X6X6X6X6X6X6X6X6X6X6X6X6X6X6X6X6X",
"6X6X6X6X6X6X6X6X6X6X6X6X6X6X6X6X6X6X6X6X6X6X6X6X6X6X6X6X6X6X6X6X6X6X6X6X6X6X6X6X6X6X6X6X6X6X6X6X6X6X6X6X6X6X6X6X6X6X6X6X6X6X6X6X",
"6X6X6X6X6X6X6X6X6X6X6X6X6X6X6X6X6X6X6X6X6X6X6X6X6X6X6X6X6X6X6X6X6X6X6X6X6X6X6X6X6X6X6X6X6X6X6X6X6X6X6X6X6X6X6X6X6X6X6X6X6X6X6X6X",
"6X6X6X6X6X6X6X6X6X6X6X6X6X6X6X6X6X6X6X6X6X6X6X6X6X6X6X6X6X6X6X6X6X6X6X6X6X6X6X6X6X6X6X6X6X6X6X6X6X6X6X6X6X6X6X6X6X6X6X6X6X6X6X6X",
"6X6X6X6X6X6X6X6X6X6X6X6X6X6X6X6X6X6X6X6X6X6X6X6X6X6X6X6X6X6X6X6X6X6X6X6X6X6X6X6X6X6X6X6X6X6X6X6X6X6X6X6X6X6X6X6X6X6X6X6X6X6X6X6X",
"6X6X6X6X6X6X6X6X6X6X6X6X6X6X6X6X6X6X6X6X6X6X6X6X6X6X6X6X6X6X6X6X6X6X6X6X6X6X6X6X6X6X6X6X6X6X6X6X6X6X6X6X6X6X6X6X6X6X6X6X6X6X6X6X",
"6X6X6X6X6X6X6X6X6X6X6X6X6X6X6X6X6X6X6X6X6X6X6X6X6X6X6X6X6X6X6X6X6X6X6X6X6X6X6X6X6X6X6X6X6X6X6X6X6X6X6X6X6X6X6X6X6X6X6X6X6X6X6X6X",
"6X6X6X6X6X6X6X6X6X6X6X6X6X6X6X6X6X6X6X6X6X6X6X6X6X6X6X6X6X6X6X6X6X6X6X6X6X6X6X6X6X6X6X6X6X6X6X6X6X6X6X6X6X6X6X6X6X6X6X6X6X6X6X6X",
"6X6X6X6X6X6X6X6X6X6X6X6X6X6X6X6X6X6X6X6X6X6X6X6X6X6X6X6X6X6X6X6X6X6X6X6X6X6X6X6X6X6X6X6X6X6X6X6X6X6X6X6X6X6X6X6X6X6X6X6X6X6X6X6X",
"6X6X6X6X6X6X6X6X6X6X6X6X6X6X6X6X6X6X6X6X6X6X6X6X6X6X6X6X6X6X6X6X6X6X6X6X6X6X6X6X6X6X6X6X6X6X6X6X6X6X6X6X6X6X6X6X6X6X6X6X6X6X6X6X",
"6X6X6X6X6X6X6X6X6X6X6X6X6X6X6X6X6X6X6X6X6X6X6X6X6X6X6X6X6X6X6X6X6X6X6X6X6X6X6X6X6X6X6X6X6X6X6X6X6X6X6X6X6X6X6X6X6X6X6X6X6X6X6X6X",
"6X6X6X6X6X6X6X6X6X6X6X6X6X6X6X6X6X6X6X6X6X6X6X6X6X6X6X6X6X6X6X6X6X6X6X6X6X6X6X6X6X6X6XO     6X6X6X6XO     6X6X6X6X6X6X6X6X6X6X6X",
"6X6X6X6X6X6X6X6X6X6X6X6X6X6X6X6X6X6X6X6X6X6X6X6X6X6X6X6X6X6X6X6X6X6X6X6X6X6X6X6X6X6X6X  * F s 6X6X6X  1 f a 6X6X6X6X6X6X6X6X6X6X",
"6X6X6X6X6X6X6X6X6X6X6X6X                6X6X6X6X6X6X6X6X6X6X6X6X6X6X6X6X6X6X6X6X6X6X6X  s 3.#.  6X6X  F 3.@.  6X6X6X6X6X6X6X6X6X",
"6X6X6X6X6X6X6X6X6X6X6X6XC l.s.s.s.s.s.d.V 6X6X6X6X6X6X6X6X6X6X6X6X6X6X6X6X6X6X6X6X6X6X  F w.e.K 2 6X  G r.e.f < 6X6X6X6X6X6X6X6X",
"6X6X6X6X6X6X6X6X6X6X6X+ _.;X+X+X+X+X+X;X(.  6X6X6X6X6X6X6X6X6X6X6X6X6X6X6X6X6X6X6X6X6X  g q.u.9.I     0 -.p.5.u   6X6X6X6X6X6X6X",
"6X6X6X6X6X6X6X6X6X6Xz v.>X5X4X4X4X4X4X5X*Xz.j 6X6X6X6X6X6X6X6X6X6X6X6X6X6X6X6X6X6X6X6X  s 9.i.u.C.S A k.I.Y.u.A.Z 6X6X6X6X6X6X6X",
"6X6X6X6X6X6X6X6X6X  M.;X1X3X2X2X2X2X3X4X1X*Xn.  6X6X6X6X6X6X6X6X6X6X6X6X6X6X6X6X6X6X6X  i 9.a.:./.=X.X=X%X^.y. X{.S   6X6X6X6X6X",
"6X6X6X6X6X6X6X6X6X  [.5X3X1X2X2X2X2X1X1X4X5X`.  6X6X6X6X6X6X6X6X6X6X6X6X6X6X6X6X6X6X6X9 _ 9.F.Y.$X5X4X4X5X|.t.$X3Xd.  6X6X6X6X6X",
"6X6X6X6X6X6X6X6X6X  _.4X3X3X4X4X4X4X4X2X3X4X).  6X6X6X6X6X6X6X6X6X6X6X6X6X6X6X6X6X6X* #.q.7.E.$X1X3X3X3X4X X;.OX>XC   6X6X6X6X6X",
"6X6X6X6X6X6X6X6Xl S [.4X3X1X-XXX+X.X@X1X4X4X).  6X6X6X6X6X6X6X6X6X6X6X6X6X6X6X6X6X  - 3.i.6.^.3X4X2X2X3X3X#XT.$X>Xm.M 6X6X6X6X6X",
"6X6X6X6X6X6X6X  z..X<X3X5X;XL.j.s.B b.,X5X5X_.  6X6X6X6X6X6X6X6X6X6X6X6X6X6X6X6X6X6X  1.u.8.Q.1X3X2X2X1X3X<X%X1X3X3X'.j 6X6X6X6X",
"6X6X6X6X6X6X6X  (.4X4X1X<XoX/ #     h '.;X+Xn.  6X6X6X6X6X6X6X6X6X6X6X6X6X6X6X6X6X1 K 3.p.6.Q.1X3X1X1X1X2X3X4X3X1X1X'.j   6X6X6X",
"6X6X6X6X6X6X6X  M.2X4X<X}.S.p   6X6X6XZ S A r       6X6X6X6X6X6X6X6X6X6X6X6X6X6X  W 9.t.t.6.Q.1X4X1X2X1X1X2X2X4X;XN.l ;     6X6X",
"6X6X6X6X6X6X6X  N.1X5X<XT.%.<   6X6X6X3 q 3 y f K a 6X6X6X6X6X6X6X6X6X6X6X6X6X6Xp 2.D.u.r.:.Q.<X3X3X3X1X1X1X1X4X*XN         6X6X",
"6X6X6X6X6X6X6X  N.1X5X:XW.%.4       1 >.9.<.3.3.q.>.*     6X6X6X6X6X6X6X6X    d 2.y.y.y.r.*.Q.1X3X3X1X1X1X2X2X4X*XN       X 6X6X",
"6X6X6X6X6X6X6X  M.1X4X<XE.%.< $ F p ! w.D.u.u.u.D.w.! p F i 6X6X6X6X6X6Xp K p @.y.D.y.r.G.J. X1X3X1X1X2X1X2X1X4X>Xn.C s.M   6X6X",
"6X6X6X6X6X6X6X  B.4X5X<XE.%.  F 5.3.5.t.y.y.y.y.y.t.9.9.5.W             ' q.3.q.y.y.y.6.H.#X<X1X3X1X3X1X2X1X1X4X4X>X;X;XB.  6X6X",
"6X6X6X6X6X6X6X  z..X3X1XE.%.f #.D.D.D.y.y.y.y.y.y.y.u.D.i.,.p d f f a F 3.D.u.u.y.y.y.:.I.<X5X1X1X1X2X3X2X3X2X;X+X*X,X,XB.  6X6X",
"6X6X6X6X6X6X6X6Xz s.=X4XE.-.3.q.y.u.y.y.y.y.y.y.y.y.y.y.y.q.5.5.5.5.3.5.w.u.y.y.t.y.y.*.J.:X4X3X1X2X4X4X4X5X4X`.C s.d.l.C 6X6X6X",
"6X6X6X6X6X6X6X6X6X  m.@XT.a.u.u.t.t.y.y.y.y.y.y.y.y.y.y.y.u.u.i.u.u.D.u.y.y.y.y.t.t.G.F.!.:X3X1X3X2X*X.X+X*X.Xl.        6X6X6X6X",
"6X6X6X6X6X6X6X6X6X6Xm g.S.p.y.y.y.t.y.y.y.y.y.y.y.y.y.y.y.y.y.y.y.y.y.y.y.y.y.y.y.7.G.}.<X1X3X3X4X3XB.B s.f.s.M 6X6X6X6X6X6X6X6X",
"6X6X6X6X6X6X6X6X6X6X  o <.D.y.y.y.y.y.y.y.t.y.t.y.y.y.y.y.y.y.y.y.y.y.y.y.y.y.y.y.6.G.&X5X3X2X3X1X[.C         6X6X6X6X6X6X6X6X6X",
"6X6X6X6X6X6X6X6X6X6X  o 2.u.y.y.y.y.y.t.y.y.y.t.y.y.y.y.y.y.y.y.y.y.y.y.y.y.y.y.t.=.r.#X4X1X4X4X[.N 6X6X6X6X6X6X6X6X6X6X6X6X6X6X",
"6X6X6X6X6X6X6X6X6X6X9 W 9.u.y.y.y.y.y.y.y.y.y.y.y.y.t.y.y.y.y.y.y.y.y.t.y.y.y.t.t.F.W.%X4X3X1X=Xz.  6X6X6X6X6X6X6X6X6X6X6X6X6X6X",
"6X6X6X6X6X6X6X6X6X  _ q.t.y.t.y.t.G.y.y.t.y.y.y.y.y.y.y.y.y.y.y.y.y.y.y.y.y.y.r.r.Q.%X1X3X5X*Xd.h 6X6X6X6X6X6X6X6X6X6X6X6X6X6X6X",
"6X6X6X6X6X6X6X6X1 F 5.D.G.t.y.y.t.t.y.y.y.y.y.y.y.y.y.y.r.t.r.t.t.y.y.y.y.t.y.r.7. X4X4X<X;XV.  6X6X6X6X6X6X6X6X6X6X6X6X6X6X6X6X",
"6X6X6X6X6X6X6X  F 3.t.u.y.y.t.y.y.y.y.y.y.t.y.u.y.D.D.y.;.;.6.;.7.t.y.y.y.y.y.7.r. X3X5X-Xb.l 6X6X6X6X6X6X6X6X6X6X6X6X6X6X6X6X6X",
"6X6X6X6X6X6X6Xi 1.u.u.y.y.y.y.y.y.t.y.y.y.G.w.0.5.5.5.S.W.T.T.T.H.y.r.t.t.y.y.r.7. X3X4X.Xl   6X6X6X6X6X6X6X6X6X6X6X6X6X6X6X6X6X",
"6X6X6X6X6X  s 1.t.t.y.y.y.y.y.y.t.t.t.u.u.D.S.} Q u 0 L.<X1X%X:X|.t.*.6.r.y.y.r.7.}.3X5X=XB   6X6X6X6X6X6X6X6X6X6X6X6X6X6X6X6X6X",
"6X6X6X6X6X  K t.D.y.y.y.y.y.y.y.y.y.G.q.q.9.} n @     z.+X3X5X5X:XR.H.T.F.t.y.r.7.}.3X4X*XC   6X6X6X6X6X6X6X6X6X6X6X6X6X6X6X6X6X",
"6X6X6X6X6X  F q.u.y.u.G.u.u.G.u.u.u.G.Z.{ F i 5 6X6X6Xk S +X5X4X1X%X:X%XR.7.r.r.r.}.2X5X>XS   6X6X6X6X6X6X6X6X6X6X6X6X6X6X6X6X6X",
"6X6X6X6X6X  F q.u.y.0.3.0.0.0.0.0.q.4.] w       6X6X6X6X  n.*X1X3X4X5X4X~.6.r.r.7. X3X1X].N 6X6X6X6X6X6X6X6X6X6X6X6X6X6X6X6X6X6X",
"6X6X6X6X6X  F 0.i.y.@.d { h.} h.h.{ p 7 : 6X6X6X6X6X6X6X6Xj z.;X5X4X4X4X~.;.t.r.7.#X5X'.l 6X6X6X6X6X6X6X6X6X6X6X6X6X6X6X6X6X6X6X",
"6X6X6X6X6X  F 0.i.y.P   n X.X.^ E %       6X6X6X6X6X6X6X6X  O ].:X@X-X@XP.<.r.p.r.}.{.S   6X6X6X6X6X6X6X6X6X6X6X6X6X6X6X6X6X6X6X",
"6X6X6X6X6X  F q.i.y.! . R o.X.T 5 6X6X6X6X6X6X6X6X6X6X6X6X  : j.K.c.K.K.| L 9.u.p.C.Z 6X6X6X6X6X6X6X6X6X6X6X6X6X6X6X6X6X6X6X6X6X",
"6X6X6X6X6X  F q.D.y._   R O.o.b   6X6X6X6X6X6X6X6X6X6X6X6X  & D Y Y H D   * 2.D.G.&.> 6X6X6X6X6X6X6X6X6X6X6X6X6X6X6X6X6X6X6X6X6X",
"6X6X6X6X6X  F q.i.y._ . R O.o.n   6X6X6X6X6X6X6X6X6X6X6X6X  o R [ ] U 2   t 5.D.G.w.,.K   6X6X6X6X6X6X6X6X6X6X6X6X6X6X6X6X6X6X6X",
"6X6X6X6X6X  F q.D.y._ . R O.O.U   6X6X6X6X6X6X6X6X6X6X6X6X= e ^ O.O.b     i 5.D.w.D.p._   6X6X6X6X6X6X6X6X6X6X6X6X6X6X6X6X6X6X6X",
"6X6X6X6X6X  K t.U.i.` . ~ +.O.R   6X6X6X6X6X6X6X6X6X6X6X  v / ( [ +.E     a q.D.t.u.t.!   6X6X6X6X6X6X6X6X6X6X6X6X6X6X6X6X6X6X6X",
"6X6X6X6X6X  s 1.w.5.! . b ( / v   6X6X6X6X6X6X6X6X6X6X6X  R O.O.] / v     i >.w.t.D.w.W   6X6X6X6X6X6X6X6X6X6X6X6X6X6X6X6X6X6X6X",
"6X6X6X6X6X6X6Xs K f p 6X5 7 7 5 6X6X6X6X6X6X6X6X6X6X6X6X  b O.O.^ w = 6X6X6Xt @.t.i.w.K   6X6X6X6X6X6X6X6X6X6X6X6X6X6X6X6X6X6X6X",
"6X6X6X6X6X6X6X      6X6X      6X6X6X6X6X6X6X6X6X6X6X6X= 6 R O.O.~ O   6X6X6X  K w.D.t.@.i 6X6X6X6X6X6X6X6X6X6X6X6X6X6X6X6X6X6X6X",
"6X6X6X6X6X6X6X6X6X6X6X6X6X6X6X6X6X6X6X6X6X6X6X6X6X6X  w ^ ( ] O.) =   6X6X6X  ! y.D.t.w.1.i 6X6X6X6X6X6X6X6X6X6X6X6X6X6X6X6X6X6X",
"6X6X6X6X6X6X6X6X6X6X6X6X6X6X6X6X6X6X6X6X6X6X6X6X6X6X  v O.O.] ( b = 6X6X6X6X  F 2.w.y.D.q.s   6X6X6X6X6X6X6X6X6X6X6X6X6X6X6X6X6X",
"6X6X6X6X6X6X6X6X6X6X6X6X6X6X6X6X6X6X6X6X6X6X6X6X6X6X  x X.O.( v : 6X6X6X6X6X6X6Xp 1.y.D.9.a   6X6X6X6X6X6X6X6X6X6X6X6X6X6X6X6X6X",
"6X6X6X6X6X6X6X6X6X6X6X6X6X6X6X6X6X6X6X6X6X6X6X6X6X6X  x ] O.( 6   6X6X6X6X6X6X6X  ' u.D.9.p   6X6X6X6X6X6X6X6X6X6X6X6X6X6X6X6X6X",
"6X6X6X6X6X6X6X6X6X6X6X6X6X6X6X6X6X6X6X6X6X6X6X6X6X6X  x ] O.( 7   6X6X6X6X6X6X6X  @.y.i.9.p   6X6X6X6X6X6X6X6X6X6X6X6X6X6X6X6X6X",
"6X6X6X6X6X6X6X6X6X6X6X6X6X6X6X6X6X6X6X6X6X6X6X6X6X6X  x ] O.( 7   6X6X6X6X6X6X6X  #.u.D.9.p   6X6X6X6X6X6X6X6X6X6X6X6X6X6X6X6X6X"
};
