/* XPM */
static char *result[] = {
/* columns rows colors chars-per-pixel */
"64 64 209 2 ",
"   c #000000",
".  c #000009",
"X  c #090804",
"o  c #180802",
"O  c #1C1102",
"+  c #1F1D11",
"@  c #19001B",
"#  c #3B0000",
"$  c #281403",
"%  c #381D1B",
"&  c #2C1107",
"*  c #3C2907",
"=  c #35210F",
"-  c #3B2605",
";  c #222013",
":  c #382512",
">  c #4F0000",
",  c #5D1F00",
"<  c #422B03",
"1  c #432D09",
"2  c #482706",
"3  c #5B2000",
"4  c #4D340A",
"5  c #472C18",
"6  c #4D3219",
"7  c #5B3B1D",
"8  c #57381C",
"9  c #573C0F",
"0  c #703800",
"q  c #672D00",
"w  c #5D3927",
"e  c #613F21",
"r  c #314639",
"t  c #5F4311",
"y  c #6D4300",
"u  c #734E01",
"i  c #634513",
"p  c #6D4C15",
"a  c #704F15",
"s  c #735116",
"d  c #76521A",
"f  c #7E591A",
"g  c #7A5618",
"h  c #48462E",
"j  c #4E4B32",
"k  c #474B37",
"l  c #575439",
"z  c #504D34",
"x  c #6C4726",
"c  c #6E4924",
"v  c #734B29",
"b  c #7D522D",
"n  c #7D5035",
"m  c #5A6A52",
"M  c #666243",
"N  c #696545",
"B  c #6D6A48",
"V  c #736F4C",
"C  c #75714E",
"Z  c #676E52",
"A  c #6A7355",
"S  c #797956",
"D  c #854618",
"F  c #835C1A",
"G  c #8A5F10",
"H  c #94501E",
"J  c #835300",
"K  c #8A621D",
"L  c #8F6311",
"P  c #986D1F",
"I  c #966200",
"U  c #82542E",
"Y  c #9C5725",
"T  c #865932",
"R  c #8B5B34",
"E  c #835533",
"W  c #976B21",
"Q  c #9B6D27",
"!  c #9F7122",
"~  c #916036",
"^  c #956339",
"/  c #99663B",
"(  c #9D693B",
")  c #9A6637",
"_  c #A37423",
"`  c #AA7A23",
"'  c #B17F29",
"]  c #A26C3D",
"[  c #A96E3D",
"{  c #A87438",
"}  c #B87F3E",
"|  c #8E6F42",
" . c #827F58",
".. c #837F57",
"X. c #A36C41",
"o. c #A77040",
"O. c #AB7241",
"+. c #B17745",
"@. c #B58229",
"#. c #BA842B",
"$. c #BD8438",
"%. c #D38C00",
"&. c #D1900F",
"*. c #F2A200",
"=. c #F3A60C",
"-. c #EAA114",
";. c #F3A81E",
":. c #F3A718",
">. c #C78E2D",
",. c #CA912F",
"<. c #D8992E",
"1. c #CE9431",
"2. c #D59933",
"3. c #DC9E34",
"4. c #D29735",
"5. c #DFA036",
"6. c #F4A922",
"7. c #F3AB2D",
"8. c #FAAE27",
"9. c #E2A236",
"0. c #E5A539",
"q. c #E8A739",
"w. c #EDAB3A",
"e. c #EBA836",
"r. c #F4AE34",
"t. c #F2AF3B",
"y. c #F4B03C",
"u. c #FBB53D",
"i. c #FFB93E",
"p. c #F9B134",
"a. c #FEB22C",
"s. c #858059",
"d. c #8F895F",
"f. c #8C865D",
"g. c #9C8A58",
"h. c #BD8340",
"j. c #A58657",
"k. c #A7915A",
"l. c #928C61",
"z. c #979367",
"x. c #8E8B62",
"c. c #BC9965",
"v. c #A6A06F",
"b. c #A7A170",
"n. c #A9A472",
"m. c #AFAC7A",
"M. c #B4AD79",
"N. c #B0AA77",
"B. c #BBB47E",
"V. c #B7B07B",
"C. c #CA9D4D",
"Z. c #D19243",
"A. c #D5A44F",
"S. c #E4A846",
"D. c #FFBA41",
"F. c #F5B64C",
"G. c #F6B443",
"H. c #F6BD5B",
"J. c #F5BA55",
"K. c #C19D67",
"L. c #C9AC70",
"P. c #E7BB69",
"I. c #F3BF62",
"U. c #FFC143",
"Y. c #FFC45B",
"T. c #F6C263",
"R. c #F7C86F",
"E. c #FDCA6A",
"W. c #FAC667",
"Q. c #F8CD76",
"!. c #F8CF7A",
"~. c #FDD47D",
"^. c #F4D07F",
"/. c #EEC978",
"(. c #BEB781",
"). c #C3BC84",
"_. c #CBC48A",
"`. c #CCC68B",
"'. c #D0CA8E",
"]. c #D1C589",
"[. c #DBD395",
"{. c #DBD799",
"}. c #F9D684",
"|. c #FADA8A",
" X c #FAD886",
".X c #E6DE9D",
"XX c #EBDF9D",
"oX c #E6CD88",
"OX c #FFE28F",
"+X c #E7E09F",
"@X c #EAE19E",
"#X c #FCE192",
"$X c #FDE699",
"%X c #FDE89C",
"&X c #F5E49A",
"*X c #EDE5A2",
"=X c #E9E4A2",
"-X c #F2E5A2",
";X c #F3EBA6",
":X c #FDEDA3",
">X c #F5EEA9",
",X c #F8EFA9",
"<X c #FFF2A6",
"1X c #FFF5AD",
"2X c #FFF8AF",
"3X c #FEF7B0",
"4X c #FFFCB3",
"5X c #FFFFB9",
"6X c None",
/* pixels */
"6X6X6X6X6X6X6X6X6X6X6X6X6X6X6X6X6X6X6X6X6X6X6X6X6X6X6X6X6X6X6X6X6X6X6X6X6X6X6X6X6X6X6X6X6X6X6X6X6X6X6X6X6X6X6X6X6X6X6X6X6X6X6X6X",
"6X6X6X6X6X6X6X6X6X6X6X6X6X6X6X6X6X6X6X6X6X6X6X6X6X6X6X6X6X6X6X6X6X6X6X6X6X6X6X6X6X6X6X6X6X6X6X6X6X6X6X6X6X6X6X6X6X6X6X6X6X6X6X6X",
"6X6X6X6X6X6X6X6X6X6X6X6X6X6X6X6X6X6X6X6X6X6X6X6X6X6X6X6X    X       6X6X6X6X6X6X6X6X6X6X6X6X6X6X6X6X6X6X6X6X6X6X6X6X6X6X6X6X6X6X",
"6X6X6X6X6X6X6X6X6X6X6X6X6X6X6X6X6X6X6X6X6X6X6X6X6X6X6X        M ).V.C 6X6X6X6X6X6X6X6X6X6X6X6X6X6X6X6X6X6X6X6X6X6X6X6X6X6X6X6X6X",
"6X6X6X6X6X6X6X6X6X6X6X6X6X6X6X6X6X6X6X6X6X6X6X6X6X6Xj j +     s.>X,Xl.  6X6X6X6X6X6X6X6X6X6X6X6X6X6X6X6X6X6X6X6X6X6X6X6X6X6X6X6X",
"6X6X6X6X6X6X6X6X6X6X6X6X6X6X6X6X6X6X6X6X6X6X      M `.'.l     C -X>Xd.  6X6X6X6X6X6X6X6X6X6X6X6X6X6X6X6X6X6X6X6X6X6X6X6X6X6X6X6X",
"6X6X6X6X6X6X6X6X6X6X6X6X6X6X6X6X6X6X6X6X6X6XS x.C M.4X1XN.N N n.>X-Xs.  6X6X6X6X6X6X6X6X6X6X6X6X6X6X6X6X6X6X6X6X6X6X6X6X6X6X6X6X",
"6X6X6X6X6X6X6X6X6X6X6X6X6X6X6X6X6X6X6X6X  Z {.2X>X>X1X1X;X*X*X>X4X+XV   6X6X6X6X6X6X6X6X6X6X6X6X6X6X6X6X6X6X6X6X6X6X6X6X6X6X6X6X",
"6X6X6X6X6X6X6X6X6X6X6X6X6X6X6X6X6X6X6X- J A.}.$X#X$X<X4X4X4X4X4X4X-X_.z.M 6X6X6X6X6X6X6X6X6X6X6X6X6X6X6X6X6X6X6X6X6X6X6X6X6X6X6X",
"6X6X6X6X6X6X6X6X6X6X6X6X6X6X6X6X6X6X  f 3.u.y.y.6.T.%X4X4X1X2X1X2X2X4X.Xs.  6X6X6X6X6X6X6X6X6X6X6X6X6X6X6X6X6X6X6X6X6X6X6X6X6X6X",
"6X6X6X6X6X6X6X6X6X6X6X6X6X6X6X6X6Xa @.q.p.Y.~.|. X#X<X3X1X1X1X3X2X2X4X*Xf.  6X6X6X6X6X6X6X6X6X6X6X6X6X6X6X6X6X6X6X6X6X6X6X6X6X6X",
"6X6X6X6X6X6X6X6X6X6X6X6X6X6X6X6X  f 3.r.-.P.%X4X4X3X2X2X1X1X1X1X2X2X4X+Xs.  6X6X6X6X6X6X6X6X6X6X6X6X6X6X6X6X6X6X6X6X6X6X6X6X6X6X",
"6X6X6X6X6X6X6X6X6X6X6X6X6X6X6X6X  1 F L 0 k.=X4X4X3X1X1X1X3X1X3X1X2X4X.XB   6X6X6X6X6X6X6X6X6X6X6X6X6X6X6X6X6X6X6X6X6X6X6X6X6X6X",
"6X6X6X6X6X6X6X6X6X6X6X6X6X6X6X6XO         A .X4X1X1X3X1X1X1X1X1X1X2X4X*XB.C 6X6X6X6X6X6X6X6X6X6X6X6X6X6X6X6X6X6X6X6X6X6X6X6X6X6X",
"6X6X6X6X6X6X6X6X6X6X6X6X6X6X6X6X6X6X6X6X  S +X5X3X1X1X1X1X1X1X1X1X1X2X1X2X[.N   6X6X6X6X6X6X6X6X6X6X6X6X6X6X6X6X6X6X6X6X6X6X6X6X",
"6X6X6X6X6X6X6X6X6X6X6X6X6X6X6X6X6X6X6X2 I C./.$X1X4X4X4X4X3X4X3X2X1X1X2X4X1X[.z.h 6X6X6X6X6X6X6X6X6X6X6X6X6X6X6X6X6X6X6X6X6X6X6X",
"6X6X6X6X6X6X6X6X6X6X6X6X6X6X6X6X6X6X  K 9.u.:.Y.$X4X1X1X<X1X1X1X3X1X1X1X1X4X4X=Xd.  6X6X6X6X6X6X6X6X6X6X6X6X6X6X6X6X6X6X6X6X6X6X",
"6X6X6X6X6X6X6X6X6X6X6X6X6X6X6X6X6Xs #.w.u.i.a.G.R.!.Q.Q.Q.Q.R. X<X5X4X4X1X3X4X1X*XM.l         6X6X6X6X6X6X6X6X6X6X6X6X          ",
"6X6X6X6X6X6X6X6X6X6X6X6X6X6X6X6X  f 3.t.q.9.9.q.7.;.6.6.6.:.*.J.#X<X:X:X1X3X3X3X5X;Xb.l V V S N 6X6X6X6X6X6X6X6X6X6Xi s a p p a ",
"6X6X6X6X6X6X6X6X6X6X6X6X6X6X6X6X  * a f g s t _ e.i.u.u.t.r.r.G.H.I.J.!.:X5X4X4X4X<X*XXXXX*X;X`.l   6X6X          i 1.q.9.3.9.9.",
"6X6X6X6X6X6X6X6X6X6X6X6X6X6X6X6XO             9 #.3.1.3.t.G.y.r.7.=.*.F. X$X#X&X<X4X4X5X4X5X5X1X'. .6X6XF ` W W K #.w.D.D.D.D.i.",
"6X6X6X6X6X6X6X6X6X6X6X6X6X6X6X6X6X6X6X6X6X6X6X6X- -   K 9.D.y.t.t.t.t.G.G.G.r.W.:X5X3X4X2X2X4X4X5X{.m > 1.G.t.w.w.w.y.y.u.y.y.u.",
"6X6X6X6X6X6X6X6X6X6X6X6X6X6X6X6X6X6X6X6X6X6X6X6X6X  6X4 W 2.t.i.u.t.t.y.r.6.=.G.Q.|. X X}.}.}. X#X^.C.&.r.D.u.D.i.D.D.t.1.' @.#.",
"6X6X6X6X6X6X6X6X6X6X6X6X6X6X6X6X6X6X6X6X6X6X6X6X6X6X6X6X  p 4.u.t.y.t.y.y.y.t.t.r.7.7.7.r.7.7.7.7.p.y.u.y.t.y.t.t.w.y.4.p       ",
"6X6X6X6X6X6X6X6X6X6X6X6X6X6X6X6X6X6X6X6X6X6X6X6X6X6X6X6X6X6Xd @.q.u.y.t.y.y.t.t.r.r.r.r.r.r.r.r.r.p.i.D.i.D.D.w.@.K ! F 6X6X6X6X",
"6X6X6X6X6X6X6X6X6X6X6X6X6X6X6X6X6X6X6X6X6X6X6X6X6X6X6X6X6X6X  p 3.D.G.t.y.y.t.u.y.y.t.y.y.r.t.r.p.w.5.3.3.5.0.1.t       6X6X6X6X",
"6X6X6X6X6X6X6X6X6X6X6X6X6X6X6X6X6X6X6X6X6X6X6X6X6X6X6X6X6X6X  K 0.D.u.t.y.y.t.t.y.y.y.t.y.t.7.;.8.<.L * t i p i 6X6X6X6X6X6X6X6X",
"6X6X6X6X6X6X6X6X6X6X6X6X6X6X6X6X6X6X6X6X6X6X6X6X6X6X6X6X6X6X6Xp ' 3.w.t.y.y.y.y.y.t.y.t.r.F.R.~.~.P.|           6X6X6X6X6X6X6X6X",
"6X6X6X6X6X6X6X6X6X6X6X6X6X6X6X6X6X6X6X6X6X6X6X6X6X6X6X6X6X6X6X6X  F 5.u.u.y.y.t.y.y.t.r.6.T.%X4X2X&Xc.D 2       6X6X6X6X6X6X6X6X",
"6X6X6X6X6X6X6X6X6X6X6X6X6X6X6X6X6X6X6X6X6X6X6X6X6X6X6X6X6X6X6X6X  a 3.u.t.t.t.G.y.y.G.r.*.H.:X5X4X*XK.H U b T v =     6X6X6X6X6X",
"6X6X6X6X6X6X6X6X6X6X6X6X6X6X6X6X6X6X6X6X6X6X6X6X6X6X6X6X6X6X6X6X  F 3.i.t.t.t.y.t.y.t.G.t.R.:X4X4X@Xc.Y ] [ O./ x o = = 6X6X6X6X",
"6X6X6X6X6X6X6X6X6X6X6X6X6X6X6X6X6X6X6X6X6X6X6X6X6X6X6X6X6X6X6X6X  F 3.i.G.u.t.y.y.t.6.H.|.:X<X4X5X:XK.Y [ O.O.( ^ R / U :       ",
"6X6X6X6X6X6X6X6X6X6X6X6X6X6X6X6X6X6X6X6X6X6X6X6X6X6X6X6X6X6X6X6X  g 3.D.t.G.t.y.y.r.:.W.:X5X4X1X*X`.j.D T ^ ] O.O.O.O.( v 6 7 7 ",
"6X6X6X6X6X6X6X6X6X6X6X6X6X6X6X6X6X6X6X6X6X6X6X6X6X6X6X6X6X6X6X6X  p 3.D.t.t.y.t.y.t.;.T.%X5X5X;Xz.O : & X x ) [ o.o.o.] ( ( ( / ",
"6X6X6X6X6X6X6X6X6X6X6X6X6X6X6X6X6X6X6X6X6X6X6X6X6X6X6X6X6X6X6Xi W >.q.u.u.y.y.y.y.r.;.W.<X3X+Xn.z         = v R U R ] o.O.O.O.O.",
"6X6X6X6X6X6X6X6X6X6X6X6X6X6X6X6X6X6X6X6X6X6X6X6X6X6X6X6X6X6X  F 9.D.t.t.t.y.t.y.y.t.6.W.<X=XS   6X6X6X6X6X6X      6 ~ [ o.] ] X.",
"6X6X6X6X6X6X6X6X6X6X6X6X6X6X6X6X6X6X6X6X6X6X6X6X6X6X6X6X6X6X  p 5.i.G.t.t.G.t.y.y.y.p.S.L.z.k 6X6X6X6X6X6X6X6X6X6X= e v x x x x ",
"6X6X6X6X6X6X6X6X6X6X6X6X6X6X6X6X6X6X6X6X6X6X6X6X6X6X6X6X6X6X* ! 9.i.y.t.t.t.t.y.y.y.D.3.q   6X6X6X6X6X6X6X6X6X6X6X6X            ",
"6X6X6X6X6X6X6X6X6X6X6X6X6X6X6X6X6X6X6X6X6X6X6X6X6X6X6X6X  a >.w.t.t.u.t.y.y.y.y.y.y.G.5.u   6X6X6X6X6X6X6X6X6X6X6X6X6X6X6X6X6X6X",
"6X6X6X6X6X6X6X6X6X6X6X6X6X6X6X6X6X6X6X6X6X6X6X6X6X6X6X6X  K q.D.u.t.t.y.y.t.y.y.y.y.D.5.Q @ 6X6X6X6X6X6X6X6X6X6X6X6X6X6X6X6X6X6X",
"6X6X6X6X6X6X6X6X6X6X6X6X6X6X6X6X6X6X6X6X6X6X              f 3.i.y.t.y.y.t.G.t.y.y.u.u.0.} n 5   6X6X6X6X6X6X6X6X6X6X6X6X6X6X6X6X",
"6X6X6X6X6X6X6X6X6X6X6X6X6X6X6X6X6X6X6X6X6Xj n.`.).)._.b.r y 2.i.G.t.y.y.t.t.y.t.y.y.t.w.S.$.i   6X6X6X6X6X6X6X6X6X6X6X6X6X6X6X6X",
"6X6X6X6X6X6X6X6X6X6X6X6X6X6X6X6X6X6X6X6X  z.*X5X4X4X4X+XA 3 3.u.y.y.t.y.u.t.y.y.y.t.G.t.i.5.F   6X6X6X6X6X6X6X6X6X6X6X6X6X6X6X6X",
"6X6X6X6X6X6X6X6X6X6X6X6X6X6X6X6X6X6X6XV (.*X1X4X4X4X5X;XS , q.D.u.t.y.y.t.y.y.t.y.y.y.y.i.0.[ w %   6X6X6X6X6X6X6X6X6X6X6X6X6X6X",
"6X6X6X6X6X6X6X6X6X6X6X6X6X6X6X6X6X6X  d.;X5X4X1X2X1X>X'.Z 3 >.w.t.y.t.G.t.t.t.y.y.y.y.u.u.0.Z.] 7   6X6X6X6X6X6X6X6X6X6X6X6X6X6X",
"6X6X6X6X6X6X6X6X6X6X6X6X6X6X6X6X6X6X  s.XX4X4X1X4X@Xb.h 6X6X< ! 9.u.t.u.y.t.t.G.y.t.t.y.t.G.G.4.s   6X6X6X6X6X6X6X6X6X6X6X6X6X6X",
"6X6X6X6X6X6X6X6X6X6X6X6X6X6X6X6X6X6X  s.+X4X1X2X4X+XB   6X6X  p 5.D.y.t.y.t.u.t.y.y.t.y.t.u.i.9.) % 6X6X6X6X6X6X6X6X6X6X6X6X6X6X",
"6X6X6X6X6X6X6X6X6X6X6X6X6X6X6X6X6X6X  s.+X4X2X2X4X+Xs.  6X6X  f 5.D.y.t.y.y.t.t.y.y.y.y.t.t.u.0.$.T 5           6X6X6X6X6X6X6X6X",
"6X6X6X6X6X6X6X6X6X6X6X6X6X6X6X6X6X6X  s.+X4X2X2X4X@Xj.#       $ F ' 0.y.y.y.t.t.y.y.y.t.y.y.y.S.Z.^ E b U E T v 5 6X6X6X6X6X6X6X",
"6X6X6X6X6X6X6X6X6X6X6X6X6X6X6X6X6X6X  s.+X4X2X1X4X-XL.) c * 4 <   F 3.D.y.y.y.t.t.y.y.y.y.y.u.0.} | X.X.o.O.O./ 8   6X6X6X6X6X6X",
"6X6X6X6X6X6X6X6X6X6X6X6X6X6X6X6X6X6X  l.>X5X2X1X1X1X-XoXS.%.%.%.%.%.-.8.u.D.D.u.y.y.y.y.y.y.u.0.+.X.O.O.O.O.+.( 7   6X6X6X6X6X6X",
"6X6X6X6X6X6X6X6X6X6X6X6X6X6X6X6X6X6X  C _.>X1X4X2X4X4X1X~.Y.E.E.E.E.R.H.S.<.<.9.r.u.y.y.y.y.G.9.{ E R R R R ~ U 6   6X6X6X6X6X6X",
"6X6X6X6X6X6X6X6X6X6X6X6X6X6X6X6X6X6X6X6X+ b.;X5X4X4X2X1X<X:X<X:X<X<X4X&Xg.o o W 0.D.u.t.y.u.i.3.d   . . . . . . 6X6X6X6X6X6X6X6X",
"6X6X6X6X6X6X6X6X6X6X6X6X6X6X6X6X6X6X6X6X6Xz M.[._.[.1X4X4X4X4X5X5X3X+X(.m     9 _ 5.t.i.y.y.y.q.#.P ! _ ! _ ` P p 6X6X6X6X6X6X6X",
"6X6X6X6X6X6X6X6X6X6X6X6X6X6X6X6X6X6X6X6X6X6X      S .X4X4X1X1X1X4X+XS . 6X6X6X6X  f 3.u.y.y.y.t.t.t.t.t.y.y.i.5.f   6X6X6X6X6X6X",
"6X6X6X6X6X6X6X6X6X6X6X6X6X6X6X6X6X6X6X6X6X6X6X6X6Xl z.B.N.N.N.M.B.z.j 6X6X6X6X6X6X1 F ,.w.D.i.i.i.D.D.D.i.i.U.w.K   6X6X6X6X6X6X",
"6X6X6X6X6X6X6X6X6X6X6X6X6X6X6X6X6X6X6X6X6X6X6X6X6X6X                6X6X6X6X6X6X6X6X  i ,.t.q.q.q.q.q.q.q.w.w.4.d   6X6X6X6X6X6X",
"6X6X6X6X6X6X6X6X6X6X6X6X6X6X6X6X6X6X6X6X6X6X6X6X6X6X6X6X6X6X6X6X6X6X6X6X6X6X6X6X6X6X6X6Xs K F F f f F F F F K s 6X6X6X6X6X6X6X6X",
"6X6X6X6X6X6X6X6X6X6X6X6X6X6X6X6X6X6X6X6X6X6X6X6X6X6X6X6X6X6X6X6X6X6X6X6X6X6X6X6X6X6X6X6X                        6X6X6X6X6X6X6X6X",
"6X6X6X6X6X6X6X6X6X6X6X6X6X6X6X6X6X6X6X6X6X6X6X6X6X6X6X6X6X6X6X6X6X6X6X6X6X6X6X6X6X6X6X6X6X6X6X6X6X6X6X6X6X6X6X6X6X6X6X6X6X6X6X6X",
"6X6X6X6X6X6X6X6X6X6X6X6X6X6X6X6X6X6X6X6X6X6X6X6X6X6X6X6X6X6X6X6X6X6X6X6X6X6X6X6X6X6X6X6X6X6X6X6X6X6X6X6X6X6X6X6X6X6X6X6X6X6X6X6X",
"6X6X6X6X6X6X6X6X6X6X6X6X6X6X6X6X6X6X6X6X6X6X6X6X6X6X6X6X6X6X6X6X6X6X6X6X6X6X6X6X6X6X6X6X6X6X6X6X6X6X6X6X6X6X6X6X6X6X6X6X6X6X6X6X",
"6X6X6X6X6X6X6X6X6X6X6X6X6X6X6X6X6X6X6X6X6X6X6X6X6X6X6X6X6X6X6X6X6X6X6X6X6X6X6X6X6X6X6X6X6X6X6X6X6X6X6X6X6X6X6X6X6X6X6X6X6X6X6X6X",
"6X6X6X6X6X6X6X6X6X6X6X6X6X6X6X6X6X6X6X6X6X6X6X6X6X6X6X6X6X6X6X6X6X6X6X6X6X6X6X6X6X6X6X6X6X6X6X6X6X6X6X6X6X6X6X6X6X6X6X6X6X6X6X6X"
};
